<svg width="193" height="193" viewBox="0 0 193 193" fill="none" xmlns="http://www.w3.org/2000/svg">
<circle cx="96.5" cy="96.5" r="96.5" fill="#5155BA"/>
<path fill-rule="evenodd" clip-rule="evenodd" d="M70.9435 66.7295C78.1897 60.481 87.4318 57.03 97 57C116.503 57 132.692 71.5 134.454 90.1978C145.996 91.829 155 101.493 155 113.354C155 126.375 144.14 136.75 130.981 136.75H66.4122C51.383 136.75 39 124.903 39 110.056C39 97.2738 48.1785 86.6887 60.3295 84.0062C61.3662 77.7495 65.39 71.5145 70.9435 66.7295ZM75.6777 72.2177C70.1895 76.952 67.3185 82.6578 67.3185 87.1238V90.3717L64.0922 90.727C53.964 91.8363 46.25 100.152 46.25 110.056C46.25 120.691 55.1675 129.5 66.4122 129.5H130.981C140.355 129.5 147.75 122.163 147.75 113.354C147.75 104.538 140.355 97.2013 130.981 97.2013H127.356V93.5763C127.363 77.4813 113.878 64.25 97 64.25C89.1691 64.2813 81.6071 67.1096 75.6777 72.225V72.2177Z" fill="white"/>
<path fill-rule="evenodd" clip-rule="evenodd" d="M94.4336 79.8088C94.7704 79.4712 95.1704 79.2033 95.6108 79.0206C96.0512 78.8378 96.5233 78.7438 97.0001 78.7438C97.4769 78.7438 97.9491 78.8378 98.3895 79.0206C98.8299 79.2033 99.2299 79.4712 99.5666 79.8088L114.067 94.3088C114.404 94.6458 114.671 95.0459 114.853 95.4863C115.036 95.9266 115.13 96.3986 115.13 96.8753C115.13 97.3519 115.036 97.8239 114.853 98.2642C114.671 98.7046 114.404 99.1047 114.067 99.4418C113.73 99.7788 113.329 100.046 112.889 100.229C112.449 100.411 111.977 100.505 111.5 100.505C111.023 100.505 110.552 100.411 110.111 100.229C109.671 100.046 109.271 99.7788 108.934 99.4418L100.625 91.126V118.625C100.625 119.587 100.243 120.509 99.5634 121.189C98.8836 121.868 97.9615 122.25 97.0001 122.25C96.0387 122.25 95.1167 121.868 94.4369 121.189C93.757 120.509 93.3751 119.587 93.3751 118.625V91.126L85.0666 99.4418C84.3859 100.122 83.4627 100.505 82.5001 100.505C81.5375 100.505 80.6143 100.122 79.9336 99.4418C79.2529 98.7611 78.8705 97.8379 78.8705 96.8753C78.8705 95.9126 79.2529 94.9894 79.9336 94.3088L94.4336 79.8088Z" fill="white"/>
</svg>
