<svg width="193" height="193" viewBox="0 0 193 193" fill="none" xmlns="http://www.w3.org/2000/svg">
<circle cx="96.5" cy="96.5" r="96.5" fill="#515151"/>
<path d="M68.9426 124.987L76.3905 115.68L52.4142 96.5L76.3905 77.3201L68.9426 68.0132L39.1509 91.8465C38.4529 92.4047 37.8894 93.1128 37.5021 93.9183C37.1148 94.7239 36.9138 95.6062 36.9138 96.5C36.9138 97.3938 37.1148 98.2761 37.5021 99.0816C37.8894 99.8872 38.4529 100.595 39.1509 101.153L68.9426 124.987ZM124.057 68.0132L116.609 77.3201L140.586 96.5L116.609 115.68L124.057 124.987L153.849 101.153C154.547 100.595 155.11 99.8872 155.498 99.0816C155.885 98.2761 156.086 97.3938 156.086 96.5C156.086 95.6062 155.885 94.7239 155.498 93.9183C155.11 93.1128 154.547 92.4047 153.849 91.8465L124.057 68.0132Z" fill="white"/>
<path d="M114.232 44.1619L90.3987 151.412L78.7621 148.826L102.595 41.576L114.232 44.1619Z" fill="white"/>
</svg>
