<svg width="193" height="193" viewBox="0 0 193 193" fill="none" xmlns="http://www.w3.org/2000/svg">
<circle cx="96.5" cy="96.5" r="96.5" fill="#337357"/>
<path fill-rule="evenodd" clip-rule="evenodd" d="M50.8 52.8H44V46H50.8V52.8ZM78 52.8H71.2V46H78V52.8ZM105.2 52.8H98.4V46H105.2V52.8ZM64.4 66.4H139.2V93.6H132.4V73.2H71.2V134.4H91.6V141.2H64.4V66.4ZM50.8 80H44V73.2H50.8V80ZM92.5928 94.5928C93.0217 94.1642 93.5575 93.8581 94.1446 93.7063C94.7316 93.5544 95.3486 93.5623 95.9316 93.7292L143.532 107.329C144.206 107.522 144.804 107.919 145.244 108.466C145.684 109.012 145.944 109.681 145.989 110.381C146.034 111.081 145.861 111.778 145.494 112.376C145.127 112.974 144.584 113.444 143.94 113.721L121.391 123.391L111.728 145.94C111.451 146.584 110.981 147.127 110.383 147.494C109.785 147.861 109.088 148.034 108.388 147.989C107.688 147.944 107.019 147.684 106.472 147.244C105.926 146.804 105.529 146.206 105.336 145.532L91.736 97.9316C91.5696 97.3502 91.5612 96.7349 91.7118 96.1492C91.8625 95.5635 92.1666 95.0286 92.5928 94.5996V94.5928ZM99.9504 101.95L109.239 134.468L115.672 119.46C116.016 118.656 116.656 118.016 117.46 117.672L132.468 111.239L99.9504 101.95ZM50.8 107.2H44V100.4H50.8V107.2Z" fill="white"/>
</svg>
