<svg width="193" height="193" viewBox="0 0 193 193" fill="none" xmlns="http://www.w3.org/2000/svg">
<circle cx="96.5" cy="96.5" r="96.5" fill="#51BA8E"/>
<path d="M73.3557 66.6686C73.0085 66.3144 72.5949 66.0321 72.1386 65.8377C71.6823 65.6434 71.1922 65.5409 70.6962 65.5361C70.2003 65.5312 69.7082 65.6242 69.2482 65.8096C68.7882 65.995 68.3692 66.2692 68.0153 66.6166C64.011 70.5976 60.8346 75.3321 58.6695 80.5469C56.5043 85.7618 55.3931 91.3537 55.4001 97.0002C55.3936 102.863 56.5922 108.665 58.9215 114.046C61.2508 119.426 64.6612 124.271 68.9409 128.278C69.6612 128.944 70.6126 129.303 71.5932 129.279C72.5738 129.254 73.5064 128.849 74.1929 128.148C75.8361 126.505 75.6333 123.889 74.0525 122.376C70.6178 119.103 67.8847 115.166 66.0191 110.803C64.1535 106.441 63.1944 101.745 63.2001 97.0002C63.2001 87.401 67.0533 78.6962 73.3037 72.3626C74.8117 70.8286 74.9677 68.2806 73.3557 66.6686Z" fill="white"/>
<path d="M82.5128 75.8309C81.828 75.1262 80.8917 74.7218 79.9092 74.7062C78.9267 74.6906 77.9781 75.0651 77.2712 75.7477C74.4572 78.5248 72.2236 81.8341 70.7006 85.4827C69.1776 89.1313 68.3956 93.0464 68.4 97.0001C68.4 105.798 72.196 113.708 78.2436 119.173C78.9573 119.803 79.8863 120.135 80.8379 120.099C81.7896 120.064 82.691 119.663 83.3552 118.98C85.0608 117.275 84.7436 114.592 83.142 113.084C80.9466 111.02 79.1979 108.528 78.0038 105.761C76.8098 102.995 76.1959 100.013 76.2 97.0001C76.2 91.0201 78.5764 85.5913 82.44 81.6081C83.9272 80.0793 84.1716 77.4845 82.5128 75.8309Z" fill="white"/>
<path d="M111.487 75.8309C112.172 75.1262 113.109 74.7218 114.091 74.7062C115.074 74.6906 116.022 75.0651 116.729 75.7477C119.543 78.5248 121.777 81.8341 123.3 85.4827C124.823 89.1313 125.605 93.0464 125.6 97.0001C125.6 105.798 121.804 113.708 115.757 119.173C115.043 119.803 114.114 120.135 113.162 120.099C112.211 120.064 111.309 119.663 110.645 118.98C108.939 117.275 109.257 114.592 110.858 113.084C113.054 111.02 114.802 108.528 115.996 105.761C117.191 102.995 117.804 100.013 117.8 97.0001C117.8 91.0201 115.424 85.5913 111.56 81.6081C110.073 80.0793 109.829 77.4845 111.487 75.8309Z" fill="white"/>
<path d="M120.645 66.6686C120.992 66.3144 121.405 66.0321 121.862 65.8377C122.318 65.6434 122.808 65.5409 123.304 65.5361C123.8 65.5312 124.292 65.6242 124.752 65.8096C125.212 65.995 125.631 66.2692 125.985 66.6166C129.989 70.5976 133.166 75.3321 135.331 80.5469C137.496 85.7618 138.607 91.3537 138.6 97.0002C138.607 102.863 137.408 108.665 135.079 114.046C132.749 119.426 129.339 124.271 125.059 128.278C124.339 128.944 123.388 129.303 122.407 129.279C121.426 129.254 120.494 128.849 119.807 128.148C118.164 126.505 118.367 123.889 119.953 122.376C123.387 119.103 126.119 115.165 127.984 110.803C129.848 106.44 130.807 101.744 130.8 97.0002C130.8 87.401 126.947 78.6962 120.697 72.3626C119.189 70.8286 119.033 68.2806 120.645 66.6686Z" fill="white"/>
<path d="M97.0001 89.2C94.9314 89.2 92.9474 90.0217 91.4846 91.4845C90.0219 92.9473 89.2001 94.9313 89.2001 97C89.2001 99.0686 90.0219 101.053 91.4846 102.515C92.9474 103.978 94.9314 104.8 97.0001 104.8C99.0688 104.8 101.053 103.978 102.516 102.515C103.978 101.053 104.8 99.0686 104.8 97C104.8 94.9313 103.978 92.9473 102.516 91.4845C101.053 90.0217 99.0688 89.2 97.0001 89.2Z" fill="white"/>
</svg>
