<svg width="193" height="193" viewBox="0 0 193 193" fill="none" xmlns="http://www.w3.org/2000/svg">
<circle cx="96.5" cy="96.5" r="96.5" fill="#B34545"/>
<path d="M99.631 96.5C102.142 96.5 104.551 97.4976 106.326 99.2733C108.102 101.049 109.1 103.457 109.1 105.969L109.093 110.691C109.744 122.287 100.811 128.069 84.2537 128.069C67.7529 128.063 58.625 122.362 58.625 110.861V105.969C58.625 103.457 59.6226 101.049 61.3983 99.2733C63.1741 97.4976 65.5825 96.5 68.0938 96.5H99.631ZM99.631 102.813H68.0938C67.2567 102.813 66.4539 103.145 65.8619 103.737C65.27 104.329 64.9375 105.132 64.9375 105.969V110.861C64.9375 118.089 70.7955 121.75 84.2537 121.75C97.6615 121.75 103.191 118.171 102.787 110.861V105.969C102.787 105.132 102.455 104.329 101.863 103.737C101.271 103.145 100.468 102.813 99.631 102.813Z" fill="white"/>
<path d="M119.939 124.37L116.694 123.29L116.176 123.145C115.221 122.942 114.226 123.034 113.324 123.41C112.422 123.785 111.656 124.426 111.126 125.247L108.178 129.577L107.888 130.051C107.332 131.089 107.12 132.277 107.284 133.444C107.447 134.61 107.977 135.695 108.797 136.54L110.754 138.503L111.259 138.964C113.153 140.567 115.69 141.098 118.045 140.365C124.111 138.472 129.691 132.854 134.779 123.511C139.873 114.15 141.673 106.215 140.176 99.6877C139.545 96.9418 137.588 94.7577 135.038 93.9434L132.469 93.1227L131.983 92.9965C130.852 92.7782 129.68 92.9615 128.669 93.5146C127.659 94.0677 126.873 94.956 126.447 96.0265L124.395 100.874L124.2 101.411C123.897 102.385 123.87 103.424 124.122 104.412C124.374 105.4 124.895 106.3 125.626 107.01L130.152 111.309L129.994 112.407C129.616 114.604 128.795 116.763 127.558 118.903C126.106 121.39 124.301 123.461 122.129 125.102L119.939 124.37Z" fill="white"/>
<path d="M120.57 117.925L120.614 117.868L120.488 117.899L120.57 117.925Z" fill="white"/>
<path d="M118.164 99.5553C117.836 100.616 117.666 101.714 117.647 102.812H111.858C111.225 100.367 109.872 98.1684 107.976 96.5H119.395L118.518 98.5579L118.215 99.3974L118.164 99.5553Z" fill="white"/>
<path d="M83.875 58.625C88.0604 58.625 92.0745 60.2877 95.034 63.2472C97.9936 66.2068 99.6562 70.2208 99.6562 74.4062C99.6562 78.5917 97.9936 82.6057 95.034 85.5653C92.0745 88.5248 88.0604 90.1875 83.875 90.1875C79.6896 90.1875 75.6755 88.5248 72.716 85.5653C69.7564 82.6057 68.0938 78.5917 68.0938 74.4062C68.0938 70.2208 69.7564 66.2068 72.716 63.2472C75.6755 60.2877 79.6896 58.625 83.875 58.625ZM83.875 64.9375C81.3637 64.9375 78.9553 65.9351 77.1796 67.7108C75.4038 69.4866 74.4062 71.895 74.4062 74.4062C74.4062 76.9175 75.4038 79.3259 77.1796 81.1017C78.9553 82.8774 81.3637 83.875 83.875 83.875C86.3863 83.875 88.7947 82.8774 90.5704 81.1017C92.3462 79.3259 93.3438 76.9175 93.3438 74.4062C93.3438 71.895 92.3462 69.4866 90.5704 67.7108C88.7947 65.9351 86.3863 64.9375 83.875 64.9375Z" fill="white"/>
<path d="M115.438 64.9375C118.786 64.9375 121.997 66.2676 124.365 68.6353C126.732 71.0029 128.062 74.2141 128.062 77.5625C128.062 80.9109 126.732 84.1221 124.365 86.4897C121.997 88.8574 118.786 90.1875 115.438 90.1875C112.089 90.1875 108.878 88.8574 106.51 86.4897C104.143 84.1221 102.812 80.9109 102.812 77.5625C102.812 74.2141 104.143 71.0029 106.51 68.6353C108.878 66.2676 112.089 64.9375 115.438 64.9375ZM115.438 71.25C113.763 71.25 112.158 71.9151 110.974 73.0989C109.79 74.2827 109.125 75.8883 109.125 77.5625C109.125 79.2367 109.79 80.8423 110.974 82.0261C112.158 83.2099 113.763 83.875 115.438 83.875C117.112 83.875 118.717 83.2099 119.901 82.0261C121.085 80.8423 121.75 79.2367 121.75 77.5625C121.75 75.8883 121.085 74.2827 119.901 73.0989C118.717 71.9151 117.112 71.25 115.438 71.25Z" fill="white"/>
</svg>
