<svg width="193" height="193" viewBox="0 0 193 193" fill="none" xmlns="http://www.w3.org/2000/svg">
<circle cx="96.5" cy="96.5" r="96.5" fill="#966B9D"/>
<path d="M145.385 53.8423L146.111 54.5155L146.784 55.2415C148.845 57.6726 149.919 60.7888 149.794 63.9737C149.668 67.1586 148.351 70.1803 146.104 72.4411L122.324 96.3133C120.865 97.7807 119.065 98.8625 117.084 99.4615L104.148 103.362C103.449 103.571 102.715 103.64 101.989 103.565C101.263 103.49 100.559 103.272 99.9167 102.924C99.2748 102.577 98.7078 102.106 98.2481 101.539C97.7885 100.972 97.4451 100.32 97.2378 99.6199C96.9141 98.5353 96.9256 97.3781 97.2708 96.3001L101.369 83.4829C101.983 81.5755 103.033 79.8529 104.438 78.4339L128.278 54.5089C130.518 52.2573 133.528 50.9375 136.701 50.8151C139.875 50.6926 142.978 51.7766 145.385 53.8489V53.8423ZM132.95 59.1619L109.118 83.0935C108.449 83.7652 107.949 84.5863 107.659 85.4893L104.141 96.4717L115.177 93.1387C116.101 92.8615 116.959 92.3467 117.645 91.6603L141.425 67.7881C142.489 66.713 143.117 65.2826 143.191 63.772C143.264 62.2613 142.776 60.7769 141.821 59.6041L141.425 59.1751L141.002 58.7791C139.856 57.8244 138.393 57.3342 136.902 57.405C135.411 57.4759 134.002 58.1027 132.95 59.1619Z" fill="white"/>
<path d="M116.074 57.4H64C58.7487 57.4 53.7125 59.4861 49.9992 63.1993C46.286 66.9125 44.2 71.9487 44.2 77.2V116.8C44.2 122.051 46.286 127.088 49.9992 130.801C53.7125 134.514 58.7487 136.6 64 136.6H130C135.251 136.6 140.287 134.514 144.001 130.801C147.714 127.088 149.8 122.051 149.8 116.8V78.0844L143.2 84.7108V116.8C143.2 120.301 141.809 123.658 139.334 126.134C136.858 128.609 133.501 130 130 130H64C60.4991 130 57.1416 128.609 54.6661 126.134C52.1907 123.658 50.8 120.301 50.8 116.8V91.918C54.5818 88.7104 59.644 84.592 64.4883 81.787C67.1943 80.2228 69.5836 79.213 71.4976 78.8896C73.3522 78.5728 74.2894 78.9556 74.8636 79.5364C75.2266 79.8538 75.4729 80.2837 75.5632 80.7574C75.622 81.377 75.5315 82.0016 75.2992 82.579C74.6854 84.4006 73.2532 86.5522 71.326 89.245L70.7055 90.1162C69.0423 92.4262 67.1548 95.0464 65.848 97.6666C64.363 100.617 63.2608 104.234 64.5016 107.943C65.6236 111.296 67.7883 113.52 70.6131 114.615C73.2663 115.645 76.1835 115.566 78.7708 115.097C83.9518 114.173 89.2252 111.454 92.1028 109.731C92.8537 109.281 93.3948 108.55 93.6071 107.7C93.8194 106.851 93.6854 105.951 93.2346 105.201C92.7839 104.45 92.0533 103.908 91.2036 103.696C90.3539 103.484 89.4547 103.618 88.7038 104.069C86.0704 105.653 81.6087 107.883 77.6091 108.603C75.6094 108.959 74.0649 108.88 73.0023 108.464C72.1047 108.114 71.2864 107.454 70.7584 105.857C70.3492 104.616 70.5603 102.986 71.7484 100.623C72.8043 98.5114 74.3619 96.34 76.0779 93.9574L76.6917 93.0928C78.5134 90.5452 80.5659 87.6016 81.556 84.691C82.0641 83.1796 82.3611 81.4834 82.084 79.7212C81.7786 77.8704 80.8853 76.1671 79.5364 74.8636C76.9162 72.25 73.504 71.854 70.3888 72.382C67.3396 72.9034 64.1518 74.362 61.1884 76.0714C57.5848 78.1504 53.9548 80.8366 50.8 83.3578V77.2C50.8 73.6992 52.1907 70.3417 54.6661 67.8662C57.1416 65.3907 60.4991 64 64 64H109.507L116.081 57.4H116.074Z" fill="white"/>
</svg>
