<svg width="474" height="379" viewBox="0 0 474 379" fill="none" xmlns="http://www.w3.org/2000/svg">
<path d="M42.2862 93.4001C62.9422 102.36 74.8113 120.9 74.8113 120.9C74.8113 120.9 53.1862 124.9 32.5251 115.945C11.8641 106.99 0 88.4451 0 88.4451C0 88.4451 21.6251 84.4401 42.2862 93.4001Z" fill="#337357"/>
<path d="M105.678 59C112.067 48.5 122.947 43.5 122.947 43.5C122.947 43.5 123.447 55.47 117.078 65.94C110.708 76.41 99.8035 81.405 99.8035 81.405C99.8035 81.405 99.284 69.44 105.678 59Z" fill="#337357"/>
<path d="M58.7112 70.2351C63.282 86.5651 75.8804 97.3151 75.8804 97.3151C75.8804 97.3151 81.0707 81.5801 76.4999 65.2451C71.9291 48.9101 59.3256 38.1651 59.3256 38.1651C59.3256 38.1651 54.1354 53.9001 58.7112 70.2351Z" fill="#46455B"/>
<path opacity="0.1" d="M136.095 65H100.557C98.5076 65 96.8458 66.6632 96.8458 68.715V74.285C96.8458 76.3367 98.5076 78 100.557 78H136.095C138.145 78 139.806 76.3367 139.806 74.285V68.715C139.806 66.6632 138.145 65 136.095 65Z" fill="#337357"/>
<path opacity="0.1" d="M181.054 77.9999H145.516C143.466 77.9999 141.805 79.6631 141.805 81.7149V87.2849C141.805 89.3366 143.466 90.9999 145.516 90.9999H181.054C183.103 90.9999 184.765 89.3366 184.765 87.2849V81.7149C184.765 79.6631 183.103 77.9999 181.054 77.9999Z" fill="#337357"/>
<path opacity="0.1" d="M226.012 90.9998H190.475C188.425 90.9998 186.763 92.663 186.763 94.7148V100.285C186.763 102.337 188.425 104 190.475 104H226.012C228.062 104 229.724 102.337 229.724 100.285V94.7148C229.724 92.663 228.062 90.9998 226.012 90.9998Z" fill="#14FF98"/>
<path opacity="0.1" d="M136.095 45.5001H100.557C98.5076 45.5001 96.8458 47.1634 96.8458 49.2151V54.7851C96.8458 56.8368 98.5076 58.5001 100.557 58.5001H136.095C138.145 58.5001 139.806 56.8368 139.806 54.7851V49.2151C139.806 47.1634 138.145 45.5001 136.095 45.5001Z" fill="#337357"/>
<path opacity="0.1" d="M181.054 58.5H145.516C143.466 58.5 141.805 60.1633 141.805 62.215V67.785C141.805 69.8368 143.466 71.5 145.516 71.5H181.054C183.103 71.5 184.765 69.8368 184.765 67.785V62.215C184.765 60.1633 183.103 58.5 181.054 58.5Z" fill="#337357"/>
<path opacity="0.1" d="M226.012 71.4999H190.475C188.425 71.4999 186.763 73.1632 186.763 75.2149V80.7849C186.763 82.8366 188.425 84.4999 190.475 84.4999H226.012C228.062 84.4999 229.724 82.8366 229.724 80.7849V75.2149C229.724 73.1632 228.062 71.4999 226.012 71.4999Z" fill="#337357"/>
<path opacity="0.1" d="M275.966 65H240.429C238.379 65 236.718 66.6632 236.718 68.715V74.285C236.718 76.3367 238.379 78 240.429 78H275.966C278.016 78 279.678 76.3367 279.678 74.285V68.715C279.678 66.6632 278.016 65 275.966 65Z" fill="#337357"/>
<path opacity="0.1" d="M320.925 77.9999H285.388C283.338 77.9999 281.676 79.6631 281.676 81.7149V87.2849C281.676 89.3366 283.338 90.9999 285.388 90.9999H320.925C322.975 90.9999 324.637 89.3366 324.637 87.2849V81.7149C324.637 79.6631 322.975 77.9999 320.925 77.9999Z" fill="#337357"/>
<path opacity="0.1" d="M365.884 90.9998H330.347C328.297 90.9998 326.635 92.663 326.635 94.7148V100.285C326.635 102.337 328.297 104 330.347 104H365.884C367.934 104 369.596 102.337 369.596 100.285V94.7148C369.596 92.663 367.934 90.9998 365.884 90.9998Z" fill="#337357"/>
<path opacity="0.1" d="M275.966 45.5001H240.429C238.379 45.5001 236.718 47.1634 236.718 49.2151V54.7851C236.718 56.8368 238.379 58.5001 240.429 58.5001H275.966C278.016 58.5001 279.678 56.8368 279.678 54.7851V49.2151C279.678 47.1634 278.016 45.5001 275.966 45.5001Z" fill="#337357"/>
<path opacity="0.1" d="M320.925 58.5H285.388C283.338 58.5 281.676 60.1633 281.676 62.215V67.785C281.676 69.8368 283.338 71.5 285.388 71.5H320.925C322.975 71.5 324.637 69.8368 324.637 67.785V62.215C324.637 60.1633 322.975 58.5 320.925 58.5Z" fill="#337357"/>
<path opacity="0.1" d="M365.884 71.4999H330.347C328.297 71.4999 326.635 73.1632 326.635 75.2149V80.7849C326.635 82.8366 328.297 84.4999 330.347 84.4999H365.884C367.934 84.4999 369.596 82.8366 369.596 80.7849V75.2149C369.596 73.1632 367.934 71.4999 365.884 71.4999Z" fill="#337357"/>
<path opacity="0.1" d="M136.095 19.4999H100.557C98.5076 19.4999 96.8458 21.1631 96.8458 23.2149V28.7849C96.8458 30.8366 98.5076 32.4999 100.557 32.4999H136.095C138.145 32.4999 139.806 30.8366 139.806 28.7849V23.2149C139.806 21.1631 138.145 19.4999 136.095 19.4999Z" fill="#337357"/>
<path opacity="0.1" d="M181.054 32.5002H145.516C143.466 32.5002 141.805 34.1635 141.805 36.2152V41.7852C141.805 43.837 143.466 45.5002 145.516 45.5002H181.054C183.103 45.5002 184.765 43.837 184.765 41.7852V36.2152C184.765 34.1635 183.103 32.5002 181.054 32.5002Z" fill="#337357"/>
<path opacity="0.1" d="M226.012 45.5001H190.475C188.425 45.5001 186.763 47.1634 186.763 49.2151V54.7851C186.763 56.8368 188.425 58.5001 190.475 58.5001H226.012C228.062 58.5001 229.724 56.8368 229.724 54.7851V49.2151C229.724 47.1634 228.062 45.5001 226.012 45.5001Z" fill="#337357"/>
<path opacity="0.1" d="M136.095 0H100.557C98.5076 0 96.8458 1.66326 96.8458 3.715V9.285C96.8458 11.3367 98.5076 13 100.557 13H136.095C138.145 13 139.806 11.3367 139.806 9.285V3.715C139.806 1.66326 138.145 0 136.095 0Z" fill="#337357"/>
<path opacity="0.1" d="M181.054 12.9999H145.516C143.466 12.9999 141.805 14.6632 141.805 16.7149V22.2849C141.805 24.3366 143.466 25.9999 145.516 25.9999H181.054C183.103 25.9999 184.765 24.3366 184.765 22.2849V16.7149C184.765 14.6632 183.103 12.9999 181.054 12.9999Z" fill="#337357"/>
<path opacity="0.1" d="M226.012 25.9998H190.475C188.425 25.9998 186.763 27.663 186.763 29.7148V35.2848C186.763 37.3365 188.425 38.9998 190.475 38.9998H226.012C228.062 38.9998 229.724 37.3365 229.724 35.2848V29.7148C229.724 27.663 228.062 25.9998 226.012 25.9998Z" fill="#337357"/>
<path opacity="0.1" d="M275.966 19.4999H240.429C238.379 19.4999 236.718 21.1631 236.718 23.2149V28.7849C236.718 30.8366 238.379 32.4999 240.429 32.4999H275.966C278.016 32.4999 279.678 30.8366 279.678 28.7849V23.2149C279.678 21.1631 278.016 19.4999 275.966 19.4999Z" fill="#337357"/>
<path opacity="0.1" d="M320.925 32.5002H285.388C283.338 32.5002 281.676 34.1635 281.676 36.2152V41.7852C281.676 43.837 283.338 45.5002 285.388 45.5002H320.925C322.975 45.5002 324.637 43.837 324.637 41.7852V36.2152C324.637 34.1635 322.975 32.5002 320.925 32.5002Z" fill="#337357"/>
<path opacity="0.1" d="M365.884 45.5001H330.347C328.297 45.5001 326.635 47.1634 326.635 49.2151V54.7851C326.635 56.8368 328.297 58.5001 330.347 58.5001H365.884C367.934 58.5001 369.596 56.8368 369.596 54.7851V49.2151C369.596 47.1634 367.934 45.5001 365.884 45.5001Z" fill="#337357"/>
<path opacity="0.1" d="M275.966 0H240.429C238.379 0 236.718 1.66326 236.718 3.715V9.285C236.718 11.3367 238.379 13 240.429 13H275.966C278.016 13 279.678 11.3367 279.678 9.285V3.715C279.678 1.66326 278.016 0 275.966 0Z" fill="#337357"/>
<path opacity="0.1" d="M320.925 12.9999H285.388C283.338 12.9999 281.676 14.6632 281.676 16.7149V22.2849C281.676 24.3366 283.338 25.9999 285.388 25.9999H320.925C322.975 25.9999 324.637 24.3366 324.637 22.2849V16.7149C324.637 14.6632 322.975 12.9999 320.925 12.9999Z" fill="#337357"/>
<path opacity="0.1" d="M365.884 25.9998H330.347C328.297 25.9998 326.635 27.663 326.635 29.7148V35.2848C326.635 37.3365 328.297 38.9998 330.347 38.9998H365.884C367.934 38.9998 369.596 37.3365 369.596 35.2848V29.7148C369.596 27.663 367.934 25.9998 365.884 25.9998Z" fill="#337357"/>
<path opacity="0.1" d="M136.095 296.5H100.557C98.5076 296.5 96.8458 298.163 96.8458 300.215V305.785C96.8458 307.837 98.5076 309.5 100.557 309.5H136.095C138.145 309.5 139.806 307.837 139.806 305.785V300.215C139.806 298.163 138.145 296.5 136.095 296.5Z" fill="#337357"/>
<path opacity="0.1" d="M181.054 309.5H145.516C143.466 309.5 141.805 311.164 141.805 313.215V318.785C141.805 320.837 143.466 322.5 145.516 322.5H181.054C183.103 322.5 184.765 320.837 184.765 318.785V313.215C184.765 311.164 183.103 309.5 181.054 309.5Z" fill="#337357"/>
<path opacity="0.1" d="M226.012 322.5H190.475C188.425 322.5 186.763 324.163 186.763 326.215V331.785C186.763 333.837 188.425 335.5 190.475 335.5H226.012C228.062 335.5 229.724 333.837 229.724 331.785V326.215C229.724 324.163 228.062 322.5 226.012 322.5Z" fill="#337357"/>
<path opacity="0.1" d="M136.095 277H100.557C98.5076 277 96.8458 278.663 96.8458 280.715V286.285C96.8458 288.337 98.5076 290 100.557 290H136.095C138.145 290 139.806 288.337 139.806 286.285V280.715C139.806 278.663 138.145 277 136.095 277Z" fill="#337357"/>
<path opacity="0.1" d="M181.054 290H145.516C143.466 290 141.805 291.663 141.805 293.715V299.285C141.805 301.337 143.466 303 145.516 303H181.054C183.103 303 184.765 301.337 184.765 299.285V293.715C184.765 291.663 183.103 290 181.054 290Z" fill="#337357"/>
<path opacity="0.1" d="M226.012 303H190.475C188.425 303 186.763 304.664 186.763 306.715V312.285C186.763 314.337 188.425 316 190.475 316H226.012C228.062 316 229.724 314.337 229.724 312.285V306.715C229.724 304.664 228.062 303 226.012 303Z" fill="#337357"/>
<path opacity="0.1" d="M275.966 296.5H240.429C238.379 296.5 236.718 298.163 236.718 300.215V305.785C236.718 307.837 238.379 309.5 240.429 309.5H275.966C278.016 309.5 279.678 307.837 279.678 305.785V300.215C279.678 298.163 278.016 296.5 275.966 296.5Z" fill="#337357"/>
<path opacity="0.1" d="M320.925 309.5H285.388C283.338 309.5 281.676 311.164 281.676 313.215V318.785C281.676 320.837 283.338 322.5 285.388 322.5H320.925C322.975 322.5 324.637 320.837 324.637 318.785V313.215C324.637 311.164 322.975 309.5 320.925 309.5Z" fill="#337357"/>
<path opacity="0.1" d="M365.884 322.5H330.347C328.297 322.5 326.635 324.163 326.635 326.215V331.785C326.635 333.837 328.297 335.5 330.347 335.5H365.884C367.934 335.5 369.596 333.837 369.596 331.785V326.215C369.596 324.163 367.934 322.5 365.884 322.5Z" fill="#337357"/>
<path opacity="0.1" d="M275.966 277H240.429C238.379 277 236.718 278.663 236.718 280.715V286.285C236.718 288.337 238.379 290 240.429 290H275.966C278.016 290 279.678 288.337 279.678 286.285V280.715C279.678 278.663 278.016 277 275.966 277Z" fill="#337357"/>
<path opacity="0.1" d="M320.925 290H285.388C283.338 290 281.676 291.663 281.676 293.715V299.285C281.676 301.337 283.338 303 285.388 303H320.925C322.975 303 324.637 301.337 324.637 299.285V293.715C324.637 291.663 322.975 290 320.925 290Z" fill="#337357"/>
<path opacity="0.1" d="M365.884 303H330.347C328.297 303 326.635 304.664 326.635 306.715V312.285C326.635 314.337 328.297 316 330.347 316H365.884C367.934 316 369.596 314.337 369.596 312.285V306.715C369.596 304.664 367.934 303 365.884 303Z" fill="#337357"/>
<path opacity="0.1" d="M136.095 251H100.557C98.5076 251 96.8458 252.663 96.8458 254.715V260.285C96.8458 262.337 98.5076 264 100.557 264H136.095C138.145 264 139.806 262.337 139.806 260.285V254.715C139.806 252.663 138.145 251 136.095 251Z" fill="#337357"/>
<path opacity="0.1" d="M181.054 264H145.516C143.466 264 141.805 265.663 141.805 267.715V273.285C141.805 275.337 143.466 277 145.516 277H181.054C183.103 277 184.765 275.337 184.765 273.285V267.715C184.765 265.663 183.103 264 181.054 264Z" fill="#337357"/>
<path opacity="0.1" d="M226.012 277H190.475C188.425 277 186.763 278.663 186.763 280.715V286.285C186.763 288.337 188.425 290 190.475 290H226.012C228.062 290 229.724 288.337 229.724 286.285V280.715C229.724 278.663 228.062 277 226.012 277Z" fill="#337357"/>
<path opacity="0.1" d="M136.095 231.5H100.557C98.5076 231.5 96.8458 233.163 96.8458 235.215V240.785C96.8458 242.837 98.5076 244.5 100.557 244.5H136.095C138.145 244.5 139.806 242.837 139.806 240.785V235.215C139.806 233.163 138.145 231.5 136.095 231.5Z" fill="#337357"/>
<path opacity="0.1" d="M181.054 244.5H145.516C143.466 244.5 141.805 246.164 141.805 248.215V253.785C141.805 255.837 143.466 257.5 145.516 257.5H181.054C183.103 257.5 184.765 255.837 184.765 253.785V248.215C184.765 246.164 183.103 244.5 181.054 244.5Z" fill="#337357"/>
<path opacity="0.1" d="M226.012 257.5H190.475C188.425 257.5 186.763 259.163 186.763 261.215V266.785C186.763 268.837 188.425 270.5 190.475 270.5H226.012C228.062 270.5 229.724 268.837 229.724 266.785V261.215C229.724 259.163 228.062 257.5 226.012 257.5Z" fill="#337357"/>
<path opacity="0.1" d="M275.966 251H240.429C238.379 251 236.718 252.663 236.718 254.715V260.285C236.718 262.337 238.379 264 240.429 264H275.966C278.016 264 279.678 262.337 279.678 260.285V254.715C279.678 252.663 278.016 251 275.966 251Z" fill="#337357"/>
<path opacity="0.1" d="M320.925 264H285.388C283.338 264 281.676 265.663 281.676 267.715V273.285C281.676 275.337 283.338 277 285.388 277H320.925C322.975 277 324.637 275.337 324.637 273.285V267.715C324.637 265.663 322.975 264 320.925 264Z" fill="#337357"/>
<path opacity="0.1" d="M365.884 277H330.347C328.297 277 326.635 278.663 326.635 280.715V286.285C326.635 288.337 328.297 290 330.347 290H365.884C367.934 290 369.596 288.337 369.596 286.285V280.715C369.596 278.663 367.934 277 365.884 277Z" fill="#337357"/>
<path opacity="0.1" d="M275.966 231.5H240.429C238.379 231.5 236.718 233.163 236.718 235.215V240.785C236.718 242.837 238.379 244.5 240.429 244.5H275.966C278.016 244.5 279.678 242.837 279.678 240.785V235.215C279.678 233.163 278.016 231.5 275.966 231.5Z" fill="#337357"/>
<path opacity="0.1" d="M320.925 244.5H285.388C283.338 244.5 281.676 246.164 281.676 248.215V253.785C281.676 255.837 283.338 257.5 285.388 257.5H320.925C322.975 257.5 324.637 255.837 324.637 253.785V248.215C324.637 246.164 322.975 244.5 320.925 244.5Z" fill="#337357"/>
<path opacity="0.1" d="M365.884 257.5H330.347C328.297 257.5 326.635 259.163 326.635 261.215V266.785C326.635 268.837 328.297 270.5 330.347 270.5H365.884C367.934 270.5 369.596 268.837 369.596 266.785V261.215C369.596 259.163 367.934 257.5 365.884 257.5Z" fill="#337357"/>
<path opacity="0.1" d="M240.964 379C361.941 379 460.013 370.941 460.013 361C460.013 351.059 361.941 343 240.964 343C119.986 343 21.9149 351.059 21.9149 361C21.9149 370.941 119.986 379 240.964 379Z" fill="#337357"/>
<path d="M420.055 69.9895H63.0928C61.1036 69.9895 59.4911 71.6035 59.4911 73.5945V248.884C59.4911 250.875 61.1036 252.489 63.0928 252.489H420.055C422.044 252.489 423.657 250.875 423.657 248.884V73.5945C423.657 71.6035 422.044 69.9895 420.055 69.9895Z" fill="#3F3D56"/>
<path opacity="0.1" d="M59.3804 241H423.546V248.395C423.546 249.351 423.167 250.268 422.491 250.944C421.816 251.62 420.9 252 419.944 252H62.9821C62.0268 252 61.1107 251.62 60.4353 250.944C59.7598 250.268 59.3804 249.351 59.3804 248.395V241Z" fill="black"/>
<path d="M120.574 227.5H96.0968C95.407 227.5 94.8479 228.06 94.8479 228.75V239.75C94.8479 240.44 95.407 241 96.0968 241H120.574C121.264 241 121.823 240.44 121.823 239.75V228.75C121.823 228.06 121.264 227.5 120.574 227.5Z" fill="#337357"/>
<path d="M146.8 239H130.315C129.763 239 129.316 239.448 129.316 240C129.316 240.552 129.763 241 130.315 241H146.8C147.352 241 147.799 240.552 147.799 240C147.799 239.448 147.352 239 146.8 239Z" fill="#337357"/>
<path d="M113.016 97.7245C125.938 100.132 139.121 97.7245 151.99 96.0929L191.101 91.1488C192.683 90.9461 194.984 89.9919 195.914 91.9448C196.438 93.0375 196.086 95.4057 196.125 96.6615C196.228 100.122 196.218 103.583 196.125 107.044C195.949 113.659 195.469 120.26 194.857 126.845C193.667 139.735 191.982 152.555 191.14 165.494C190.709 172.079 190.494 178.685 190.685 185.27C190.729 186.842 190.792 188.415 190.885 189.982C190.988 191.737 191.767 194.343 189.872 195.514C188.79 196.187 186.659 196.152 185.421 196.35C183.462 196.661 181.503 196.909 179.505 197.111C166.337 198.441 152.998 197.887 139.782 197.808L99.8725 197.601L90.1376 197.546C89.2561 197.546 86.0781 198.08 85.5345 197.022C85.3044 196.572 85.9165 194.466 86.0242 193.903C86.1744 192.973 86.3376 192.045 86.5139 191.119C87.65 184.617 88.9917 178.156 90.3432 171.698C93.2471 157.855 96.2195 143.942 97.4143 129.802C98.0068 122.707 97.6151 115.548 98.3398 108.468C98.6777 105.18 99.0792 97.8432 103.413 97.5515C107.086 97.3043 110.866 97.5515 114.548 97.5515C114.743 97.5515 114.93 97.4733 115.068 97.3343C115.206 97.1952 115.283 97.0065 115.283 96.8099C115.283 96.6132 115.206 96.4245 115.068 96.2854C114.93 96.1464 114.743 96.0682 114.548 96.0682C111.072 96.0682 107.59 95.9743 104.113 96.0435C101.802 96.088 100.196 96.6418 99.0939 98.7875C96.2782 104.295 96.5671 111.642 96.479 117.654C96.2684 132.047 94.0795 146.132 91.2296 160.208C89.7948 167.293 88.2474 174.353 86.8224 181.443C86.1515 184.83 85.51 188.227 84.9224 191.633C84.6482 193.255 83.2624 196.829 84.4817 198.318C85.701 199.806 89.452 199.005 91.1316 199.015L102.816 199.084L125.204 199.213C139.669 199.297 154.183 199.707 168.644 199.277C175.548 199.069 182.845 198.782 189.568 197.116C191.571 196.622 192.536 195.692 192.614 193.537C192.732 190.194 192.193 186.748 192.124 183.391C191.635 154.666 198.319 126.341 197.633 97.6059C197.589 95.6529 198.319 90.7286 196.203 89.5469C195.253 89.013 194.019 89.3047 193.02 89.4233C191.111 89.6458 189.206 89.9177 187.296 90.1452L162.493 93.2699C154.565 94.2587 146.642 95.3266 138.7 96.2363C130.292 97.2252 121.801 97.8135 113.422 96.2363C112.497 96.0633 112.1 97.4921 113.03 97.6652L113.016 97.7245Z" fill="#2AD98C"/>
<path d="M97.001 122.865L196.819 117.965C197.783 117.915 197.788 116.415 196.819 116.465L97.001 121.365C96.0419 121.41 96.0369 122.91 97.001 122.865Z" fill="#14FF98"/>
<path d="M127.753 110.5C127.474 110.796 127.271 111.156 127.162 111.548C127.054 111.941 127.043 112.354 127.13 112.751C127.217 113.149 127.4 113.519 127.662 113.83C127.925 114.141 128.26 114.383 128.637 114.535C129.981 115.15 131.559 114.635 132.893 114.3C134.891 113.8 136.889 113.355 138.942 112.99C143.411 112.198 147.937 111.777 152.475 111.73C154.543 111.705 156.596 111.8 158.664 111.89C160.163 111.95 161.776 112.07 163.045 111.14C164.494 110.08 164.964 108.01 163.545 106.72C161.547 104.895 157.241 105.955 154.933 106.145C146.558 106.841 138.238 108.084 130.026 109.865C129.087 110.065 129.481 111.515 130.425 111.31C135.844 110.14 141.304 109.2 146.805 108.49C149.509 108.157 152.219 107.875 154.933 107.645C156.212 107.54 157.49 107.445 158.769 107.37C159.269 107.34 159.798 107.285 160.308 107.3C161.891 107.335 162.076 107.05 161.127 108.965C160.283 110.66 160.553 110.465 159.089 110.41C158.47 110.41 157.85 110.34 157.231 110.31C155.962 110.257 154.693 110.228 153.424 110.225C150.723 110.225 148.029 110.355 145.342 110.615C143.064 110.835 140.791 111.145 138.538 111.545C137.129 111.795 135.73 112.085 134.337 112.405C133.722 112.55 133.103 112.7 132.488 112.855C132.194 112.935 131.894 113.005 131.599 113.08C130.507 113.46 129.576 112.96 128.807 111.58C129.476 110.885 128.422 109.82 127.748 110.52L127.753 110.5Z" fill="#14FF98"/>
<path d="M145.846 131.84C138.618 131.56 130.81 133.515 126.049 139.34C122.323 143.895 120.199 151.71 124.146 156.84C128.387 162.34 137.688 161.37 143.298 159.025C149.233 156.525 155.727 151.37 157.51 144.92C159.733 136.865 152.515 130.775 144.997 130.685C144.033 130.685 144.033 132.185 144.997 132.185C149.283 132.235 153.489 134.075 155.487 138.07C157.58 142.28 155.777 146.7 152.989 150.07C148.523 155.435 141.54 159.48 134.426 159.365C130.155 159.3 125.435 157.835 124.111 153.325C123.022 149.67 123.851 145.675 125.749 142.435C129.856 135.435 138.213 133.065 145.876 133.365C146.84 133.4 146.84 131.9 145.876 131.865L145.846 131.84Z" fill="#14FF98"/>
<path d="M138.668 142.95C138.359 142.835 138.027 142.801 137.702 142.85C137.377 142.898 137.07 143.029 136.809 143.228C136.547 143.428 136.341 143.69 136.208 143.991C136.076 144.292 136.021 144.622 136.05 144.95C136.2 146.9 138.348 147.45 139.961 147.335C141.355 147.215 142.984 146.7 142.494 144.955C142.404 144.646 142.249 144.36 142.038 144.117C141.828 143.874 141.568 143.678 141.275 143.545C140.828 143.367 140.343 143.307 139.867 143.37C139.682 143.37 137.988 143.99 138.708 143.245L137.529 143.09C137.66 143.219 137.76 143.376 137.822 143.549C137.884 143.722 137.907 143.907 137.888 144.09C137.891 144.22 137.927 144.348 137.993 144.461C138.06 144.573 138.154 144.667 138.267 144.732C138.381 144.797 138.509 144.831 138.639 144.832C138.77 144.832 138.898 144.799 139.012 144.735C139.184 144.663 139.372 144.64 139.555 144.67C139.739 144.699 139.91 144.779 140.051 144.9C140.192 145.022 140.296 145.18 140.351 145.358C140.407 145.535 140.412 145.725 140.366 145.905C140.326 146.078 140.348 146.26 140.429 146.418C140.509 146.577 140.643 146.702 140.807 146.771C140.97 146.84 141.153 146.85 141.323 146.797C141.493 146.745 141.639 146.634 141.735 146.485C142.234 145.585 142.839 143.795 142.089 142.855C141.59 142.22 140.626 142.41 140.026 142.78C139.656 143.042 139.312 143.338 138.997 143.665C138.393 144.2 137.998 144.45 138.223 143.425C138.598 141.56 140.376 140.075 142 139.33L140.901 138.485C140.324 140.652 139.294 142.672 137.878 144.41L139.157 144.94C139.121 144.253 139.297 143.572 139.662 142.99C140.027 142.407 140.562 141.951 141.195 141.685H140.461L140.851 142.325C140.706 143.27 142.149 143.675 142.294 142.72C142.484 141.485 141.705 139.88 140.261 140.485C138.538 141.205 137.644 143.18 137.679 144.94C137.679 145.54 138.528 146.005 138.962 145.475C140.551 143.543 141.711 141.295 142.364 138.88C142.399 138.736 142.391 138.586 142.342 138.447C142.293 138.308 142.205 138.186 142.088 138.097C141.971 138.007 141.83 137.954 141.683 137.943C141.536 137.932 141.389 137.964 141.26 138.035C139.764 138.712 138.499 139.814 137.624 141.205C137.014 142.205 136.25 143.765 136.869 144.915C136.971 145.099 137.108 145.261 137.272 145.391C137.437 145.522 137.626 145.619 137.828 145.676C138.03 145.733 138.241 145.75 138.45 145.725C138.658 145.7 138.86 145.633 139.042 145.53C139.504 145.256 139.926 144.919 140.296 144.53C140.481 144.365 140.686 144.08 140.931 144.03C141.15 143.88 141.14 143.965 140.896 144.295C140.892 144.813 140.742 145.319 140.461 145.755L141.83 146.33C141.953 145.863 141.939 145.37 141.788 144.911C141.638 144.453 141.358 144.047 140.982 143.744C140.607 143.441 140.151 143.254 139.671 143.204C139.192 143.154 138.708 143.245 138.278 143.465L139.407 144.115C139.431 143.479 139.231 142.854 138.842 142.35C138.784 142.253 138.703 142.17 138.608 142.108C138.513 142.045 138.405 142.005 138.293 141.991C138.18 141.976 138.065 141.986 137.957 142.022C137.849 142.057 137.751 142.116 137.669 142.195C136.909 142.99 136.764 144.365 137.718 145.1C138.433 145.645 138.783 145.1 139.567 144.975C142.229 144.63 140.676 145.83 139.737 145.87C139.317 145.915 138.892 145.884 138.483 145.78C137.44 145.426 137.375 144.971 138.288 144.415C139.182 144.78 139.567 143.33 138.688 142.97L138.668 142.95Z" fill="#14FF98"/>
<path d="M137.464 145.69C138.078 147.69 135.541 148.35 134.337 149.04C133.492 149.514 132.755 150.159 132.174 150.935C130.915 152.625 130.445 154.775 130.031 156.8C129.841 157.745 131.284 158.145 131.479 157.2C131.708 155.712 132.133 154.261 132.743 152.885C133.642 151.095 134.931 150.495 136.61 149.575C138.288 148.655 139.502 147.23 138.907 145.29C138.628 144.37 137.179 144.765 137.464 145.69Z" fill="#14FF98"/>
<path d="M139.961 144.685C139.604 144.734 139.278 144.916 139.047 145.193C138.816 145.47 138.697 145.824 138.712 146.185C138.712 146.78 139.107 147.16 139.377 147.635C140.017 148.607 140.506 149.671 140.825 150.79C141.065 151.865 141.3 153.79 140.741 154.79C139.707 156.645 137.838 156.29 136.245 156.29C134.746 156.29 133.587 156.79 133.637 154.7C133.667 153.525 134.486 152.335 135.136 151.41L133.767 151.23C134.056 152.757 134.208 154.306 134.222 155.86C134.222 156.555 135.286 156.94 135.615 156.235C136.418 154.544 137.056 152.779 137.518 150.965L136.045 150.765L136.305 154.565C136.309 154.727 136.365 154.884 136.465 155.011C136.566 155.139 136.704 155.231 136.86 155.273C137.017 155.316 137.183 155.307 137.334 155.248C137.485 155.189 137.612 155.083 137.698 154.945C137.873 154.752 138.001 154.521 138.073 154.27C138.123 154.035 137.663 152.45 137.479 153.015L138.947 153.215L139.052 149.605L137.553 149.805C137.87 150.823 137.966 151.897 137.833 152.955C137.738 153.79 139.142 153.98 139.332 153.155L140.271 148.305L138.902 148.48C139.227 149.151 139.317 149.912 139.157 150.64C139.047 151.6 140.546 151.59 140.656 150.64C140.783 149.644 140.623 148.633 140.196 147.725C140.12 147.6 140.009 147.499 139.878 147.436C139.746 147.373 139.598 147.349 139.453 147.368C139.308 147.387 139.172 147.448 139.06 147.544C138.949 147.639 138.868 147.764 138.827 147.905L137.883 152.755L139.357 152.955C139.507 151.763 139.392 150.553 139.022 149.41C138.972 149.238 138.862 149.089 138.712 148.991C138.562 148.893 138.382 148.852 138.204 148.876C138.026 148.9 137.863 148.986 137.744 149.12C137.624 149.254 137.557 149.426 137.553 149.605L137.449 153.215C137.449 154.09 138.662 154.215 138.922 153.415L139.002 153.17C139.037 153.042 139.037 152.908 139.004 152.78C138.971 152.652 138.905 152.535 138.812 152.44C137.259 150.75 136.944 153.44 136.405 154.185L137.803 154.565L137.543 150.765C137.489 149.955 136.29 149.705 136.07 150.565C135.648 152.256 135.062 153.902 134.321 155.48L135.72 155.86C135.704 154.172 135.537 152.488 135.221 150.83C135.091 150.14 134.187 150.17 133.852 150.65C132.853 152.09 131.124 155.235 132.458 156.96C133.622 158.46 137.284 157.88 138.847 157.785C141.315 157.645 142.209 156.08 142.479 153.75C142.607 152.634 142.545 151.505 142.294 150.41C142.159 149.82 140.796 146.08 140.386 146.155C141.335 145.98 140.93 144.53 139.986 144.705L139.961 144.685Z" fill="#14FF98"/>
<path d="M137.059 148.055L132.968 153.46L134.262 154.215L137.259 149.875L135.89 149.295L134.397 155C134.356 155.173 134.378 155.355 134.459 155.514C134.54 155.672 134.674 155.797 134.837 155.866C135.001 155.936 135.184 155.945 135.353 155.892C135.523 155.84 135.669 155.729 135.765 155.58C136.445 154.453 137.208 153.378 138.048 152.365L136.799 151.635C136.464 152.927 135.817 154.116 134.916 155.1L136.17 155.83C136.247 155.139 136.43 154.464 136.714 153.83C137.099 152.965 135.88 152.2 135.421 153.07C134.998 153.862 134.515 154.621 133.977 155.34L135.346 155.52L135.65 154.095L134.282 153.915L134.501 155.165C134.538 155.291 134.606 155.405 134.699 155.496C134.793 155.588 134.908 155.653 135.035 155.687C135.161 155.72 135.294 155.72 135.42 155.686C135.547 155.653 135.662 155.587 135.755 155.495C137.022 154.183 138.038 152.649 138.753 150.97H137.464C137.803 151.595 138.04 152.27 138.168 152.97C138.348 153.87 139.542 153.535 139.637 152.77C139.851 151.095 139.961 149.408 139.966 147.72H138.468V150.865C138.468 151.68 139.802 151.92 139.941 151.065C140.04 150.306 140.29 149.575 140.676 148.915H139.362C139.679 149.426 139.851 150.014 139.862 150.615C139.862 150.814 139.94 151.005 140.081 151.145C140.222 151.286 140.412 151.365 140.611 151.365C140.81 151.365 141 151.286 141.141 151.145C141.281 151.005 141.36 150.814 141.36 150.615L141.55 149.615H140.106C140.251 150.5 140.801 155.485 138.847 154.9C138.518 154.82 138.423 154.84 138.563 154.955L139.007 154.005L140.051 151.79L138.653 151.41C138.743 152.44 138.837 153.91 138.218 154.79C137.719 155.505 136.18 155.79 135.396 155.37C134.878 155 134.435 154.536 134.092 154L133.068 155C133.897 155.605 135.241 157.09 136.31 157.175C137.124 157.24 137.808 156.565 138.343 156.025C139.163 155.177 139.802 154.171 140.222 153.068C140.642 151.966 140.834 150.789 140.786 149.61C140.786 149.411 140.707 149.22 140.566 149.08C140.426 148.939 140.235 148.86 140.036 148.86C139.838 148.86 139.647 148.939 139.507 149.08C139.366 149.22 139.287 149.411 139.287 149.61V151.32C139.287 151.519 139.366 151.71 139.507 151.85C139.647 151.991 139.838 152.07 140.036 152.07C140.235 152.07 140.426 151.991 140.566 151.85C140.707 151.71 140.786 151.519 140.786 151.32V147.125C140.786 146.926 140.707 146.735 140.566 146.595C140.426 146.454 140.235 146.375 140.036 146.375C139.838 146.375 139.647 146.454 139.507 146.595C139.366 146.735 139.287 146.926 139.287 147.125C139.284 148.13 139.197 149.134 139.027 150.125L140.501 150.325C140.384 149.13 140.329 147.93 140.336 146.73C140.334 146.55 140.267 146.377 140.148 146.243C140.029 146.108 139.866 146.021 139.688 145.997C139.51 145.972 139.329 146.013 139.179 146.111C139.028 146.209 138.918 146.357 138.867 146.53C138.643 147.485 138.368 148.425 138.103 149.36L139.472 149.18L139.367 148.78C139.297 147.825 137.798 147.82 137.868 148.78C137.885 149.185 137.991 149.581 138.178 149.94C138.468 150.55 139.372 150.335 139.547 149.76C139.832 148.82 140.086 147.88 140.311 146.93L138.837 146.73C138.83 147.93 138.885 149.13 139.002 150.325C139.077 151.095 140.316 151.425 140.471 150.525C140.671 149.396 140.776 148.252 140.786 147.105H139.287V151.3H140.786V149.59H139.287C139.375 151.476 138.721 153.322 137.464 154.73C137.269 154.951 137.059 155.159 136.834 155.35C136.48 155.69 136.155 155.64 135.87 155.195C135.161 154.9 134.427 154.14 133.807 153.695C133.188 153.25 132.338 154.13 132.778 154.72C133.927 156.25 135.64 157.955 137.773 157.22C140.016 156.425 140.321 153.385 140.151 151.385C140.096 150.72 139.102 150.27 138.758 151.01C138.258 152.065 137.758 153.115 137.259 154.175C137.084 154.545 136.759 155.055 136.809 155.495C136.974 156.62 138.338 156.435 139.177 156.37C142.429 156.125 141.915 151.51 141.54 149.19C141.415 148.42 140.296 148.54 140.096 149.19C139.938 149.647 139.855 150.126 139.852 150.61H141.35C141.296 149.75 141.056 148.913 140.646 148.155C140.579 148.043 140.484 147.951 140.371 147.886C140.257 147.822 140.129 147.788 139.999 147.788C139.869 147.788 139.741 147.822 139.627 147.886C139.514 147.951 139.419 148.043 139.352 148.155C138.905 148.927 138.604 149.774 138.463 150.655L139.961 150.855V147.71C139.961 147.511 139.883 147.32 139.742 147.18C139.601 147.039 139.411 146.96 139.212 146.96C139.013 146.96 138.823 147.039 138.682 147.18C138.542 147.32 138.463 147.511 138.463 147.71C138.458 149.399 138.348 151.085 138.133 152.76L139.607 152.56C139.437 151.743 139.149 150.954 138.753 150.22C138.686 150.108 138.591 150.016 138.477 149.951C138.364 149.887 138.236 149.853 138.106 149.853C137.975 149.853 137.847 149.887 137.734 149.951C137.621 150.016 137.526 150.108 137.459 150.22C136.807 151.786 135.871 153.217 134.696 154.44L135.95 154.77L135.73 153.52C135.615 152.855 134.676 152.835 134.362 153.34C134.113 153.716 133.945 154.139 133.867 154.583C133.788 155.027 133.802 155.482 133.907 155.92C134.032 156.63 134.931 156.555 135.276 156.1C135.814 155.383 136.297 154.626 136.719 153.835L135.426 153.075C135.08 153.822 134.845 154.615 134.726 155.43C134.636 156.09 135.421 156.78 135.98 156.16C137.054 154.984 137.832 153.568 138.248 152.03C138.433 151.35 137.494 150.705 136.994 151.3C136.075 152.402 135.24 153.572 134.496 154.8L135.865 155.38L137.389 149.695C137.429 149.522 137.407 149.34 137.326 149.181C137.246 149.023 137.112 148.898 136.948 148.829C136.785 148.759 136.602 148.75 136.432 148.802C136.262 148.855 136.116 148.965 136.02 149.115L133.023 153.46C132.463 154.265 133.747 154.96 134.317 154.215L138.393 148.815C138.972 148.045 137.674 147.315 137.099 148.055H137.059Z" fill="#14FF98"/>
<path d="M200.79 166.1C206.785 162.43 211.551 156.955 216.846 152.375C222.59 147.41 228.62 142.785 234.829 138.405C246.888 129.905 259.551 122.3 272.205 114.715C272.369 114.611 272.486 114.448 272.532 114.259C272.578 114.07 272.549 113.871 272.452 113.703C272.354 113.536 272.195 113.412 272.008 113.359C271.822 113.307 271.622 113.328 271.451 113.42C258.797 121.005 246.129 128.595 234.07 137.11C228.38 141.11 222.825 145.35 217.5 149.85C211.705 154.75 206.545 160.85 200.016 164.805C199.192 165.305 199.946 166.605 200.77 166.1H200.79Z" fill="#14FF98"/>
<path d="M291.552 91.4252C285.058 92.0852 278.064 93.7402 274.068 99.4252C270.616 104.315 270.691 112.845 273.933 117.865C277.615 123.57 285.138 123.775 290.983 121.93C296.827 120.085 302.877 116.85 302.822 109.86C302.792 106.11 301.438 102.205 299.944 98.8052C298.656 95.8702 296.373 93.3052 292.916 93.6302C291.962 93.7202 291.952 95.2202 292.916 95.1302C297.547 94.7002 299.035 100.205 300.134 103.68C301.133 106.925 302.057 110.765 300.489 113.99C298.92 117.215 295.139 118.86 291.907 120.04C288.41 121.31 284.569 122.085 280.917 121.04C273.684 119.015 271.685 109.84 273.768 103.33C276.166 95.8302 284.658 93.6252 291.577 92.9252C292.526 92.8302 292.536 91.3302 291.577 91.4252H291.552Z" fill="#14FF98"/>
<path d="M301.543 149.425C295.049 150.085 288.055 151.74 284.059 157.425C280.607 162.315 280.682 170.845 283.924 175.865C287.606 181.57 295.129 181.775 300.974 179.93C306.818 178.085 312.868 174.85 312.813 167.86C312.783 164.11 311.429 160.205 309.935 156.805C308.647 153.87 306.364 151.305 302.907 151.63C301.953 151.72 301.943 153.22 302.907 153.13C307.538 152.7 309.026 158.205 310.125 161.68C311.124 164.925 312.048 168.765 310.48 171.99C308.911 175.215 305.13 176.86 301.898 178.04C298.401 179.31 294.559 180.085 290.908 179.04C283.674 177.015 281.676 167.84 283.759 161.33C286.157 153.83 294.649 151.625 301.568 150.925C302.517 150.83 302.527 149.33 301.568 149.425H301.543Z" fill="#14FF98"/>
<path d="M269.118 127.024L273.849 132.424C273.942 132.514 274.058 132.579 274.184 132.612C274.31 132.644 274.442 132.644 274.568 132.61C274.693 132.576 274.808 132.51 274.901 132.419C274.994 132.328 275.061 132.214 275.097 132.089C276.096 129.459 275.907 126.734 276.141 123.969C276.4 121.111 277.117 118.314 278.264 115.684C280.569 110.35 284.477 105.867 289.444 102.859C290.268 102.359 289.514 101.059 288.69 101.564C283.792 104.516 279.863 108.836 277.385 113.994C276.173 116.504 275.331 119.177 274.888 121.929C274.388 125.174 274.843 128.574 273.644 131.689L274.898 131.354L270.192 125.964C269.552 125.239 268.498 126.304 269.133 127.024H269.118Z" fill="#14FF98"/>
<path d="M203.203 171.945C228.97 171.158 254.743 170.992 280.522 171.445C281.486 171.445 281.486 169.945 280.522 169.945C254.749 169.485 228.976 169.652 203.203 170.445C202.239 170.475 202.234 171.975 203.203 171.945Z" fill="#14FF98"/>
<path d="M285.907 157.155C294.715 160.615 303.188 164.876 311.219 169.885C312.038 170.385 312.793 169.1 311.973 168.59C303.837 163.519 295.252 159.208 286.327 155.71C285.433 155.355 285.043 156.805 285.932 157.155H285.907Z" fill="#14FF98"/>
<path d="M297.028 150.508C288.096 160.93 282.922 174.054 282.337 187.773C282.297 188.738 283.795 188.738 283.835 187.773C284.403 174.448 289.421 161.699 298.087 151.568C298.712 150.838 297.657 149.773 297.028 150.508Z" fill="#14FF98"/>
<path d="M102.111 166.5L157.945 165.77L164.364 165.685C165.518 165.685 166.672 165.645 167.826 165.64C169.449 165.64 170.543 166.99 170.513 168.64C170.438 172.14 168.24 172.015 165.363 172.14L158.424 172.455L130.17 173.7C125.11 173.925 120.045 174.2 114.984 174.375C110.419 174.515 101.737 173.025 103.765 166.375C104.044 165.45 102.601 165.055 102.316 165.975C101.317 169.245 103.085 172.565 105.933 174.28C109.974 176.71 115.299 175.885 119.76 175.685L154.448 174.11L162.87 173.735C165.028 173.635 168.031 174.075 170.014 173.07C172.342 171.895 172.751 167.23 171.283 165.265C170.528 164.265 169.469 164.175 168.285 164.13C165.178 164.01 162.016 164.215 158.904 164.255L141.61 164.485L102.091 164.985C101.127 164.985 101.127 166.485 102.091 166.485L102.111 166.5Z" fill="#14FF98"/>
<path d="M327.694 350.25C326.435 351.04 324.997 351.485 323.698 352.18C322.399 352.875 321.135 353.92 320.765 355.36C320.627 355.807 320.65 356.288 320.83 356.72C321.154 357.241 321.648 357.634 322.229 357.83C324.868 359.003 327.717 359.625 330.604 359.657C333.491 359.69 336.354 359.133 339.019 358.02C339.956 357.569 340.924 357.184 341.916 356.87C343.138 356.62 344.381 356.493 345.628 356.49C346.938 356.413 348.242 356.246 349.529 355.99C350.176 355.918 350.79 355.663 351.297 355.255C351.761 354.72 352.039 354.05 352.092 353.345C352.683 349.449 351.791 345.474 349.594 342.205C349.317 341.747 348.946 341.353 348.505 341.05C347.967 340.772 347.376 340.613 346.772 340.585C344.274 340.28 341.656 339.72 339.134 339.66C337.325 339.62 336.416 340.48 335.137 341.725C332.495 344.37 330.951 348.215 327.694 350.25Z" fill="#323444"/>
<path d="M364.505 349.88C364.505 352.33 364.8 354.925 366.284 356.88C366.962 357.725 367.784 358.444 368.711 359.005C371.848 361.005 376.005 361.74 379.312 360.045C379.846 359.805 380.303 359.42 380.63 358.935C381.13 358.065 380.865 356.98 380.585 356.02L375.8 339.42C372.708 339.895 368.162 340.23 365.414 341.8C363.421 342.935 364.505 347.69 364.505 349.88Z" fill="#323444"/>
<path d="M324.887 247.665C324.597 248.58 323.548 249.005 322.973 249.775C322.299 250.68 322.369 251.935 322.614 253.035C322.916 254.657 323.677 256.158 324.807 257.36C325.38 257.955 326.087 258.405 326.869 258.671C327.651 258.937 328.486 259.012 329.303 258.89C330.911 258.585 332.3 257.16 332.355 255.525C332.326 254.781 332.167 254.048 331.885 253.36L328.478 243.5C328.464 243.43 328.436 243.364 328.395 243.306C328.353 243.249 328.3 243.2 328.239 243.165C328.11 243.136 327.975 243.16 327.864 243.23C327.06 243.61 325.446 244.01 324.977 244.845C324.507 245.68 325.226 246.76 324.887 247.665Z" fill="#FBB3B2"/>
<path d="M323.293 247.17C324.537 246.975 325.626 246.245 326.79 245.765C327.954 245.285 329.412 245.1 330.392 245.9C330.671 246.13 330.941 246.445 331.306 246.44C330.81 243.995 330.06 241.609 329.068 239.32C329.033 239.21 328.965 239.114 328.873 239.045C328.737 238.99 328.585 238.99 328.448 239.045L325.086 239.925C323.843 240.25 323.698 240.15 323.793 241.375C323.818 241.92 324.097 247.17 323.293 247.17Z" fill="#323444"/>
<path d="M322.923 175.97C322.424 176.74 322.424 177.7 322.424 178.605C322.424 183.03 322.469 187.48 323.123 191.86C323.278 192.91 323.473 193.96 323.573 195.02C323.686 196.495 323.709 197.976 323.643 199.455L323.143 218.705C323.083 221.06 322.963 223.59 321.51 225.44C321.069 226.06 320.862 226.816 320.925 227.575C321.305 232.405 322.104 237.195 322.898 241.97C324.177 241.392 325.575 241.126 326.976 241.193C328.377 241.26 329.743 241.658 330.961 242.355C333.481 234.423 334.875 226.175 335.102 217.855C335.217 213.76 335.042 209.64 335.672 205.595C336.726 198.785 336.296 191.8 335.522 184.95C335.277 182.78 334.758 180.545 333.369 178.865C332.054 177.395 330.303 176.385 328.373 175.985C326.525 175.5 324.872 176 322.923 175.97Z" fill="#5B5583"/>
<path opacity="0.1" d="M322.923 175.97C322.424 176.74 322.424 177.7 322.424 178.605C322.424 183.03 322.469 187.48 323.123 191.86C323.278 192.91 323.473 193.96 323.573 195.02C323.686 196.495 323.709 197.976 323.643 199.455L323.143 218.705C323.083 221.06 322.963 223.59 321.51 225.44C321.069 226.06 320.862 226.816 320.925 227.575C321.305 232.405 322.104 237.195 322.898 241.97C324.177 241.392 325.575 241.126 326.976 241.193C328.377 241.26 329.743 241.658 330.961 242.355C333.481 234.423 334.875 226.175 335.102 217.855C335.217 213.76 335.042 209.64 335.672 205.595C336.726 198.785 336.296 191.8 335.522 184.95C335.277 182.78 334.758 180.545 333.369 178.865C332.054 177.395 330.303 176.385 328.373 175.985C326.525 175.5 324.872 176 322.923 175.97Z" fill="black"/>
<path d="M329.028 231.795C325.678 248.98 327.507 266.773 334.283 282.915C334.868 284.11 335.279 285.383 335.502 286.695C335.777 289.145 334.648 291.5 334.003 293.87C332.505 299.26 333.369 305 334.328 310.515C334.728 312.815 335.139 315.113 335.562 317.41C335.976 319.65 336.376 322.085 335.337 324.115C336.231 327.845 336.761 331.54 337.655 335.27C337.75 335.565 337.779 335.877 337.74 336.185C337.56 336.673 337.242 337.098 336.826 337.41C336.159 338.086 335.68 338.925 335.436 339.843C335.191 340.76 335.19 341.726 335.432 342.645C337.715 341.005 340.897 341.58 343.505 342.645C346.112 343.71 348.68 345.145 351.497 345.145C351.088 341.835 350.693 338.36 351.912 335.255C352.621 333.455 353.87 331.755 353.835 329.83C353.8 328.105 352.746 326.565 352.491 324.86C352.397 323.799 352.437 322.73 352.611 321.68C353.281 315.56 352.521 309.38 351.762 303.27C351.676 302.065 351.393 300.882 350.923 299.77C350.568 299.05 350.039 298.36 350.049 297.555C350.049 296.62 350.803 295.86 351.083 294.97C351.582 293.33 350.663 291.1 352.047 290.085C355.693 287.405 354.295 281.005 354.215 276.48C354.151 272.577 353.985 268.677 353.715 264.78C356.011 271.242 356.95 278.108 356.473 284.95C356.313 287.19 356.018 289.545 356.892 291.615C357.562 293.205 358.89 294.515 359.25 296.2C359.475 297.24 359.315 298.315 359.365 299.375C359.415 300.435 359.775 301.59 360.689 302.125C360.759 306.945 361.188 312.1 361.263 316.92C361.215 319.384 361.415 321.846 361.863 324.27C362.087 325.041 362.211 325.837 362.232 326.64C362.12 327.646 361.853 328.629 361.443 329.555C360.572 332.135 360.345 334.889 360.78 337.577C361.215 340.266 362.3 342.807 363.941 344.98C365.12 342.885 367.577 341.775 369.975 341.6C372.373 341.425 374.741 342.03 377.064 342.64C376.709 339.718 377.289 336.76 378.722 334.19C379.106 333.611 379.401 332.977 379.596 332.31C379.866 331.04 379.237 329.775 378.897 328.52C378.343 326.52 378.537 324.365 378.667 322.275C379.103 315.275 378.793 308.249 377.743 301.315C377.581 299.949 377.261 298.607 376.789 297.315C376.609 296.855 376.389 296.415 376.239 295.95C376.004 295.116 375.87 294.256 375.84 293.39L375.265 285.39C374.861 279.785 376.699 274.25 377.983 268.78C378.557 266.33 379.182 263.885 379.566 261.395C380.091 258.005 380.176 254.54 380.945 251.195C381.634 248.195 382.878 245.27 383.138 242.195C383.538 237.43 381.56 232.825 379.641 228.455C378.842 226.655 375.82 226.835 373.877 226.515C360.094 224.25 345.578 224.235 332.58 229.34C331.235 229.897 330.025 230.734 329.028 231.795Z" fill="#3C354C"/>
<path d="M338.964 143.05L340.492 149C340.908 150.364 341.138 151.779 341.177 153.205C341.193 153.725 341.077 154.241 340.842 154.705C340.591 155.086 340.268 155.415 339.893 155.675C338.849 156.47 338.125 158.325 336.931 158.875C337.545 159.945 338.394 159.25 339.503 159.785C341.457 160.735 343.245 162.1 345.363 162.57C347.361 163.01 349.459 162.595 351.442 162.07C354.255 161.305 357.052 160.25 359.315 158.405C361.578 156.56 362.867 154.93 362.857 152.015C360.359 152.31 358.136 149.785 357.032 147.515C356.649 146.652 356.368 145.748 356.193 144.82L354.854 138.925C353.396 139.245 352.207 140.29 350.813 140.835C349.419 141.38 347.771 141.43 346.222 141.5C343.473 141.625 340.74 141.98 338.05 142.56C337.68 142.635 337.215 142.87 337.305 143.23" fill="#FBB3B2"/>
<path opacity="0.1" d="M338.964 143.05L340.492 149C340.908 150.364 341.138 151.779 341.177 153.205C341.193 153.725 341.077 154.241 340.842 154.705C340.591 155.086 340.268 155.415 339.893 155.675C338.849 156.47 338.125 158.325 336.931 158.875C337.545 159.945 338.394 159.25 339.503 159.785C341.457 160.735 343.245 162.1 345.363 162.57C347.361 163.01 349.459 162.595 351.442 162.07C354.255 161.305 357.052 160.25 359.315 158.405C361.578 156.56 362.867 154.93 362.857 152.015C360.359 152.31 358.136 149.785 357.032 147.515C356.649 146.652 356.368 145.748 356.193 144.82L354.854 138.925C353.396 139.245 352.207 140.29 350.813 140.835C349.419 141.38 347.771 141.43 346.222 141.5C343.473 141.625 340.74 141.98 338.05 142.56C337.68 142.635 337.215 142.87 337.305 143.23" fill="black"/>
<path d="M345.528 146.33C352.833 146.33 358.755 140.402 358.755 133.09C358.755 125.778 352.833 119.85 345.528 119.85C338.222 119.85 332.3 125.778 332.3 133.09C332.3 140.402 338.222 146.33 345.528 146.33Z" fill="#FBB3B2"/>
<path d="M349.169 154.915C349.877 153.386 350.898 152.023 352.167 150.915C354.03 149.28 356.578 147.955 357.017 145.515L361.054 150.22C361.273 150.438 361.443 150.701 361.553 150.99C361.604 151.261 361.596 151.54 361.531 151.808C361.465 152.077 361.344 152.328 361.173 152.545C360.174 154.14 358.601 155.28 357.112 156.435C353.7 159.14 350.433 162.024 347.326 165.075C347.189 165.234 347.006 165.346 346.802 165.395C346.608 165.4 346.418 165.346 346.257 165.24C343.576 163.831 341.203 161.9 339.278 159.56C339.134 159.385 338.954 159.185 338.719 159.2C338.577 159.226 338.447 159.294 338.344 159.395C337.001 160.495 335.532 161.81 333.808 161.64C336.041 160.035 337.305 157.355 337.775 154.64C337.868 153.711 338.059 152.794 338.344 151.905C338.492 151.46 338.748 151.059 339.087 150.736C339.427 150.413 339.841 150.179 340.293 150.055C339.204 151.72 339.948 154.08 341.412 155.425C342.834 156.633 344.539 157.461 346.367 157.83C348.065 158.15 348.565 156.225 349.169 154.915Z" fill="#323444"/>
<path d="M331.96 233.155C333.843 233.62 335.627 234.41 337.455 234.995C340.787 236.039 344.294 236.408 347.771 236.08C348.841 236.056 349.881 235.725 350.768 235.125C351.003 234.935 351.217 234.71 351.467 234.535C351.885 234.284 352.338 234.097 352.811 233.98C357.392 232.545 361.228 229.45 364.95 226.42C365.07 226.32 365.205 226.195 365.195 226.035C365.177 225.926 365.125 225.826 365.045 225.75L363.086 223.5C357.951 224.375 352.691 224.045 347.481 223.915C346.411 223.867 345.339 223.896 344.274 224C343.245 224.12 342.231 224.38 341.217 224.6C337.365 225.44 333.429 225.76 329.527 226.31C329.254 226.33 328.99 226.412 328.753 226.55C328.588 226.677 328.448 226.833 328.338 227.01L326.97 228.935C326.438 229.582 326.047 230.333 325.821 231.14C325.501 232.64 326.17 233.14 327.444 232.945C328.949 232.724 330.482 232.796 331.96 233.155Z" fill="#323444"/>
<path d="M347.271 162.785C345.743 161.218 344.011 159.864 342.121 158.76C341.357 158.275 340.51 157.935 339.623 157.76C339.177 157.672 338.716 157.682 338.275 157.791C337.833 157.9 337.42 158.104 337.065 158.39C336.621 158.785 336.341 159.335 335.912 159.75C335.371 160.205 334.751 160.555 334.083 160.785C331.809 161.757 329.654 162.987 327.659 164.45C326.572 165.211 325.592 166.116 324.747 167.14C322.484 170.04 322.144 173.985 322.204 177.665C322.249 180.225 324.702 182.125 326.39 184.04C327.974 185.924 329.407 187.931 330.676 190.04C331.585 191.48 332.535 193.04 332.42 194.755C332.325 196.16 331.506 197.48 331.635 198.88C331.68 199.38 331.84 199.84 331.885 200.325C331.975 201.325 331.58 202.325 331.481 203.325C331.346 204.74 331.805 206.145 331.83 207.57C331.812 208.545 331.688 209.516 331.461 210.465C330.501 215.035 329.298 219.63 329.542 224.295L326.775 224.795C327.037 225.052 327.235 225.367 327.353 225.715C327.471 226.063 327.505 226.434 327.453 226.798C327.401 227.162 327.264 227.508 327.053 227.809C326.843 228.11 326.564 228.357 326.24 228.53C330.561 229.975 335.232 229.245 339.813 229.24C343.604 229.24 347.381 229.74 351.167 229.67C354.954 229.6 358.86 228.915 361.983 226.77C362.832 226.19 363.611 225.51 364.505 225.005C365.703 224.384 366.994 223.962 368.327 223.755C370.796 223.284 373.306 223.059 375.82 223.085C377.049 223.085 378.388 223.135 379.367 222.395C380.446 221.575 380.72 220.09 380.865 218.745C381.01 217.325 381.1 215.9 381.125 214.475C381.167 213.365 381.108 212.254 380.95 211.155C380.8 210.351 380.605 209.557 380.366 208.775L378.482 202.135C377.703 199.395 378.787 196.39 379.017 193.55C379.072 192.88 379.082 192.1 378.567 191.67C378.383 191.515 378.128 191.41 378.068 191.17C378.041 191.056 378.038 190.938 378.058 190.822C378.079 190.707 378.123 190.597 378.188 190.5C379.187 188.5 380.685 186.735 382.054 184.93C384.353 181.764 386.487 178.481 388.448 175.095C387.834 168.009 384.853 161.337 379.986 156.155C378.987 155.07 377.843 154.03 376.444 153.54C375.53 153.26 374.582 153.107 373.627 153.085C369.71 152.82 365.634 152.585 362.222 150.615C361.977 150.445 361.7 150.328 361.408 150.27C360.654 150.185 360.104 150.93 359.615 151.52C358.356 153.02 356.503 153.88 354.874 154.985C351.837 157.05 349.464 159.89 347.271 162.785Z" fill="#5E5C6B"/>
<path d="M350.173 127.555C347.955 127.82 346.342 129.555 346.567 131.44C346.791 133.325 348.77 134.625 350.988 134.355C353.206 134.085 354.819 132.355 354.594 130.475C354.369 128.595 352.391 127.29 350.173 127.555ZM350.928 133.835C349.049 134.06 347.376 132.955 347.181 131.365C346.986 129.775 348.36 128.305 350.233 128.08C352.107 127.855 353.785 128.96 353.98 130.55C354.175 132.14 352.801 133.61 350.928 133.835Z" fill="#3C354C"/>
<path d="M339.363 128.855C337.145 129.12 335.532 130.855 335.757 132.735C335.981 134.615 337.96 135.92 340.178 135.655C342.396 135.39 344.009 133.655 343.784 131.77C343.559 129.885 341.581 128.59 339.363 128.855ZM340.118 135.13C338.239 135.355 336.566 134.25 336.376 132.665C336.186 131.08 337.55 129.605 339.428 129.375C341.307 129.145 342.98 130.255 343.17 131.845C343.36 133.435 341.991 134.905 340.118 135.13Z" fill="#3C354C"/>
<path d="M331.336 129.82L336.156 130.85L335.682 132.12L331.136 130.785L331.336 129.82Z" fill="#3C354C"/>
<path d="M358.206 126.59L353.76 128.735L354.524 129.855L358.626 127.48L358.206 126.59Z" fill="#3C354C"/>
<path d="M343.34 130.53L346.722 130.125L346.547 130.965L343.644 131.16L343.34 130.53Z" fill="#3C354C"/>
<path d="M336.781 129.395C337.099 128.71 337.269 127.965 337.28 127.21C337.292 126.758 337.369 126.31 337.51 125.88C337.756 125.334 338.129 124.855 338.599 124.485C340.158 123.165 342.391 122.485 344.593 122.39C346.996 122.279 349.385 122.796 351.527 123.89C352.181 124.197 352.767 124.632 353.251 125.17C353.95 126.025 354.1 127.13 354.804 127.975C355.285 128.488 355.89 128.867 356.56 129.078C357.23 129.288 357.944 129.321 358.631 129.175C358.875 128.305 358.556 127.385 358.681 126.495C358.877 125.732 359.143 124.989 359.475 124.275C360.249 121.99 359.12 119.34 356.792 117.975C355.978 117.475 355.014 117.15 354.404 116.475C353.795 115.8 353.65 115.1 353.231 114.425C352.117 112.64 349.234 111.805 347.041 112.63C346.352 112.89 345.742 113.285 345.043 113.565C343.744 114.1 342.266 114.195 340.837 114.375C339.429 114.505 338.052 114.867 336.761 115.445C335.527 116.055 334.493 117.035 334.208 118.205C334.073 118.745 334.103 119.305 333.968 119.84C333.279 122.555 328.828 123.875 328.578 126.645C328.488 127.645 329.033 128.605 329.712 129.42C330.182 129.975 331.306 131.46 332.1 131.675C332.894 131.89 333.499 131.135 334.258 130.875C335.457 130.5 336.181 130.42 336.781 129.395Z" fill="#646464"/>
<path opacity="0.1" d="M426.813 359.635C431.647 359.635 435.565 358.972 435.565 358.155C435.565 357.337 431.647 356.675 426.813 356.675C421.979 356.675 418.061 357.337 418.061 358.155C418.061 358.972 421.979 359.635 426.813 359.635Z" fill="#337357"/>
<path opacity="0.1" d="M38.0251 363.25C41.871 363.25 44.9887 362.722 44.9887 362.07C44.9887 361.418 41.871 360.89 38.0251 360.89C34.1792 360.89 31.0615 361.418 31.0615 362.07C31.0615 362.722 34.1792 363.25 38.0251 363.25Z" fill="#337357"/>
<path d="M33.3492 356.595C33.3492 356.595 37.3206 356.47 38.5145 355.595C39.7084 354.72 44.6289 353.72 44.9236 355.095C45.2183 356.47 50.8931 361.9 46.4222 361.935C41.9513 361.97 36.0018 361.235 34.8079 360.51C33.614 359.785 33.3492 356.595 33.3492 356.595Z" fill="#A8A8A8"/>
<path d="M11.2346 320.18C11.2346 340.18 23.7581 356.34 39.2389 356.34L11.2346 320.18Z" fill="#46455B"/>
<path d="M39.239 356.34C39.239 336.13 53.2262 319.775 70.4953 319.775L39.239 356.34Z" fill="#337357"/>
<path d="M21.3804 322C21.3804 341 29.373 356.35 39.239 356.35L21.3804 322Z" fill="#337357"/>
<path d="M39.239 356.34C39.239 330.515 55.3992 309.615 75.3659 309.615L39.239 356.34Z" fill="#46455B"/>
<path opacity="0.2" d="M46.4873 361.5C41.9914 361.535 36.0669 360.8 34.873 360.07C33.9638 359.52 33.6041 357.525 33.4792 356.61H33.3494C33.3494 356.61 33.5991 359.815 34.793 360.545C35.9869 361.275 41.9265 362.005 46.4074 361.97C47.7012 361.97 48.1508 361.5 48.1258 360.815C47.946 361.215 47.4514 361.47 46.4873 361.5Z" fill="black"/>
<path d="M388.571 305.181C388.571 330.301 404.316 350.631 423.773 350.631L388.571 305.181Z" fill="#46455B"/>
<path d="M423.773 350.637C423.773 325.232 441.347 304.677 463.062 304.677L423.773 350.637Z" fill="#337357"/>
<path d="M401.329 307.461C401.329 331.326 411.37 350.636 423.773 350.636L401.329 307.461Z" fill="#337357"/>
<path d="M423.773 350.637C423.773 318.177 444.085 291.907 469.182 291.907L423.773 350.637Z" fill="#46455B"/>
<path d="M416.37 350.956C416.37 350.956 421.366 350.801 422.864 349.731C424.363 348.661 430.542 347.376 430.917 349.096C431.291 350.816 438.41 357.651 432.78 357.696C427.15 357.741 419.682 356.816 418.183 355.901C416.685 354.986 416.37 350.956 416.37 350.956Z" fill="#A8A8A8"/>
<path opacity="0.2" d="M432.885 357.096C427.25 357.141 419.792 356.216 418.288 355.301C417.144 354.606 416.69 352.101 416.535 350.951H416.37C416.37 350.951 416.685 354.981 418.188 355.896C419.692 356.811 427.15 357.736 432.785 357.691C434.414 357.691 434.973 357.096 434.943 356.241C434.718 356.761 434.124 357.086 432.885 357.096Z" fill="black"/>
<path d="M388.788 177.14C389.567 179.61 389.492 182.25 389.747 184.825C389.898 186.379 390.17 187.919 390.561 189.43C390.74 190.261 391.061 191.054 391.51 191.775C391.96 192.435 392.604 192.97 392.889 193.715C393.045 194.22 393.114 194.747 393.094 195.275L393.154 198.725C393.282 200.553 393.004 202.387 392.34 204.095L390.187 210.65C389.023 214.2 387.829 217.805 385.731 220.895C385.435 221.418 384.987 221.838 384.447 222.1C384.024 222.212 383.59 222.279 383.153 222.3C382.391 222.436 381.701 222.833 381.2 223.424C380.7 224.014 380.421 224.761 380.411 225.535C379.911 224.804 379.287 224.166 378.567 223.65L374.186 220.15C372.688 218.93 371.124 217.69 369.306 216.985C371.751 216.221 373.923 214.762 375.556 212.786C377.189 210.81 378.215 208.403 378.507 205.855C378.506 205.097 378.676 204.348 379.007 203.665C379.371 203.075 380.046 202.625 380.096 201.93C380.156 201.055 379.167 200.395 379.167 199.52C379.167 198.94 379.596 198.46 379.786 197.915C379.964 197.241 379.964 196.533 379.786 195.86L379.182 192.5C379.146 192.163 379.044 191.837 378.882 191.54C378.656 191.255 378.405 190.991 378.133 190.75C377.094 189.585 377.553 187.75 378.133 186.315C379.463 183.13 381.178 180.119 383.238 177.35C383.971 176.42 384.65 175.449 385.271 174.44C385.801 173.52 385.92 172.245 386.48 171.44C387.199 173.33 388.173 175.195 388.788 177.14Z" fill="#5B5583"/>
<path d="M369.151 217.19C368.928 217.355 368.735 217.558 368.581 217.79C367.993 218.529 367.209 219.089 366.319 219.405C366.818 219.765 367.273 220.12 367.742 220.485C371.217 223.171 374.398 226.216 377.234 229.57C377.548 228.445 379.431 228.525 379.891 227.45C379.999 227.142 380.034 226.813 379.991 226.49C379.896 224.806 379.655 223.133 379.272 221.49C379.12 220.644 378.779 219.844 378.273 219.15C377.573 218.305 376.484 217.9 375.445 217.55C373.872 217 370.75 216.225 369.151 217.19Z" fill="#323444"/>
<path d="M362.907 221.12C361.408 222.23 360.094 223.62 358.411 224.38C357.222 224.92 355.868 225.155 354.829 225.96C355.394 227.205 356.862 227.85 358.226 227.8C359.591 227.666 360.899 227.186 362.027 226.405C362.922 225.855 363.971 225.215 364.945 225.6C365.095 226.36 364.445 227.075 364.445 227.845C364.445 228.615 365.085 229.175 365.714 229.58C368.711 231.515 372.568 231.355 376.14 231.13C376.344 231.137 376.546 231.078 376.714 230.96C376.791 230.869 376.85 230.765 376.887 230.651C376.924 230.538 376.938 230.419 376.929 230.3C376.974 229.51 376.994 228.725 376.999 227.935C377.1 227.298 377.017 226.645 376.76 226.054C376.504 225.462 376.084 224.956 375.55 224.595C373.612 222.927 371.521 221.446 369.306 220.17C367.108 218.895 364.88 219.65 362.907 221.12Z" fill="#FBB3B2"/>
</svg>
