<svg xmlns="http://www.w3.org/2000/svg" width="32" height="32" fill="none" viewBox="0 0 32 32"><g clip-path="url(#clip0)"><path fill="#6B6A6A" fill-rule="evenodd" d="M28 10H4C3.46957 10 2.96086 10.2107 2.58579 10.5858C2.21071 10.9609 2 11.4696 2 12V22C2 22.5304 2.21071 23.0391 2.58579 23.4142C2.96086 23.7893 3.46957 24 4 24H28C28.5304 24 29.0391 23.7893 29.4142 23.4142C29.7893 23.0391 30 22.5304 30 22V12C30 11.4696 29.7893 10.9609 29.4142 10.5858C29.0391 10.2107 28.5304 10 28 10ZM4 8C2.93913 8 1.92172 8.42143 1.17157 9.17157C0.421427 9.92172 0 10.9391 0 12L0 22C0 23.0609 0.421427 24.0783 1.17157 24.8284C1.92172 25.5786 2.93913 26 4 26H28C29.0609 26 30.0783 25.5786 30.8284 24.8284C31.5786 24.0783 32 23.0609 32 22V12C32 10.9391 31.5786 9.92172 30.8284 9.17157C30.0783 8.42143 29.0609 8 28 8H4Z" clip-rule="evenodd"/><path fill="#6B6A6A" d="M26 20.5C26 20.3674 26.0527 20.2402 26.1464 20.1464C26.2402 20.0527 26.3674 20 26.5 20H27.5C27.6326 20 27.7598 20.0527 27.8536 20.1464C27.9473 20.2402 28 20.3674 28 20.5V21.5C28 21.6326 27.9473 21.7598 27.8536 21.8536C27.7598 21.9473 27.6326 22 27.5 22H26.5C26.3674 22 26.2402 21.9473 26.1464 21.8536C26.0527 21.7598 26 21.6326 26 21.5V20.5ZM26 16.5C26 16.3674 26.0527 16.2402 26.1464 16.1464C26.2402 16.0527 26.3674 16 26.5 16H27.5C27.6326 16 27.7598 16.0527 27.8536 16.1464C27.9473 16.2402 28 16.3674 28 16.5V17.5C28 17.6326 27.9473 17.7598 27.8536 17.8536C27.7598 17.9473 27.6326 18 27.5 18H26.5C26.3674 18 26.2402 17.9473 26.1464 17.8536C26.0527 17.7598 26 17.6326 26 17.5V16.5ZM16 16.5C16 16.3674 16.0527 16.2402 16.1464 16.1464C16.2402 16.0527 16.3674 16 16.5 16H17.5C17.6326 16 17.7598 16.0527 17.8536 16.1464C17.9473 16.2402 18 16.3674 18 16.5V17.5C18 17.6326 17.9473 17.7598 17.8536 17.8536C17.7598 17.9473 17.6326 18 17.5 18H16.5C16.3674 18 16.2402 17.9473 16.1464 17.8536C16.0527 17.7598 16 17.6326 16 17.5V16.5ZM20 16.5C20 16.3674 20.0527 16.2402 20.1464 16.1464C20.2402 16.0527 20.3674 16 20.5 16H23.5C23.6326 16 23.7598 16.0527 23.8536 16.1464C23.9473 16.2402 24 16.3674 24 16.5V17.5C24 17.6326 23.9473 17.7598 23.8536 17.8536C23.7598 17.9473 23.6326 18 23.5 18H20.5C20.3674 18 20.2402 17.9473 20.1464 17.8536C20.0527 17.7598 20 17.6326 20 17.5V16.5ZM22 20.5C22 20.3674 22.0527 20.2402 22.1464 20.1464C22.2402 20.0527 22.3674 20 22.5 20H23.5C23.6326 20 23.7598 20.0527 23.8536 20.1464C23.9473 20.2402 24 20.3674 24 20.5V21.5C24 21.6326 23.9473 21.7598 23.8536 21.8536C23.7598 21.9473 23.6326 22 23.5 22H22.5C22.3674 22 22.2402 21.9473 22.1464 21.8536C22.0527 21.7598 22 21.6326 22 21.5V20.5ZM12 16.5C12 16.3674 12.0527 16.2402 12.1464 16.1464C12.2402 16.0527 12.3674 16 12.5 16H13.5C13.6326 16 13.7598 16.0527 13.8536 16.1464C13.9473 16.2402 14 16.3674 14 16.5V17.5C14 17.6326 13.9473 17.7598 13.8536 17.8536C13.7598 17.9473 13.6326 18 13.5 18H12.5C12.3674 18 12.2402 17.9473 12.1464 17.8536C12.0527 17.7598 12 17.6326 12 17.5V16.5ZM8 16.5C8 16.3674 8.05268 16.2402 8.14645 16.1464C8.24021 16.0527 8.36739 16 8.5 16H9.5C9.63261 16 9.75979 16.0527 9.85355 16.1464C9.94732 16.2402 10 16.3674 10 16.5V17.5C10 17.6326 9.94732 17.7598 9.85355 17.8536C9.75979 17.9473 9.63261 18 9.5 18H8.5C8.36739 18 8.24021 17.9473 8.14645 17.8536C8.05268 17.7598 8 17.6326 8 17.5V16.5ZM4 16.5C4 16.3674 4.05268 16.2402 4.14645 16.1464C4.24021 16.0527 4.36739 16 4.5 16H5.5C5.63261 16 5.75979 16.0527 5.85355 16.1464C5.94732 16.2402 6 16.3674 6 16.5V17.5C6 17.6326 5.94732 17.7598 5.85355 17.8536C5.75979 17.9473 5.63261 18 5.5 18H4.5C4.36739 18 4.24021 17.9473 4.14645 17.8536C4.05268 17.7598 4 17.6326 4 17.5V16.5ZM26 12.5C26 12.3674 26.0527 12.2402 26.1464 12.1464C26.2402 12.0527 26.3674 12 26.5 12H27.5C27.6326 12 27.7598 12.0527 27.8536 12.1464C27.9473 12.2402 28 12.3674 28 12.5V13.5C28 13.6326 27.9473 13.7598 27.8536 13.8536C27.7598 13.9473 27.6326 14 27.5 14H26.5C26.3674 14 26.2402 13.9473 26.1464 13.8536C26.0527 13.7598 26 13.6326 26 13.5V12.5ZM22 12.5C22 12.3674 22.0527 12.2402 22.1464 12.1464C22.2402 12.0527 22.3674 12 22.5 12H23.5C23.6326 12 23.7598 12.0527 23.8536 12.1464C23.9473 12.2402 24 12.3674 24 12.5V13.5C24 13.6326 23.9473 13.7598 23.8536 13.8536C23.7598 13.9473 23.6326 14 23.5 14H22.5C22.3674 14 22.2402 13.9473 22.1464 13.8536C22.0527 13.7598 22 13.6326 22 13.5V12.5ZM18 12.5C18 12.3674 18.0527 12.2402 18.1464 12.1464C18.2402 12.0527 18.3674 12 18.5 12H19.5C19.6326 12 19.7598 12.0527 19.8536 12.1464C19.9473 12.2402 20 12.3674 20 12.5V13.5C20 13.6326 19.9473 13.7598 19.8536 13.8536C19.7598 13.9473 19.6326 14 19.5 14H18.5C18.3674 14 18.2402 13.9473 18.1464 13.8536C18.0527 13.7598 18 13.6326 18 13.5V12.5ZM14 12.5C14 12.3674 14.0527 12.2402 14.1464 12.1464C14.2402 12.0527 14.3674 12 14.5 12H15.5C15.6326 12 15.7598 12.0527 15.8536 12.1464C15.9473 12.2402 16 12.3674 16 12.5V13.5C16 13.6326 15.9473 13.7598 15.8536 13.8536C15.7598 13.9473 15.6326 14 15.5 14H14.5C14.3674 14 14.2402 13.9473 14.1464 13.8536C14.0527 13.7598 14 13.6326 14 13.5V12.5ZM10 12.5C10 12.3674 10.0527 12.2402 10.1464 12.1464C10.2402 12.0527 10.3674 12 10.5 12H11.5C11.6326 12 11.7598 12.0527 11.8536 12.1464C11.9473 12.2402 12 12.3674 12 12.5V13.5C12 13.6326 11.9473 13.7598 11.8536 13.8536C11.7598 13.9473 11.6326 14 11.5 14H10.5C10.3674 14 10.2402 13.9473 10.1464 13.8536C10.0527 13.7598 10 13.6326 10 13.5V12.5ZM4 12.5C4 12.3674 4.05268 12.2402 4.14645 12.1464C4.24021 12.0527 4.36739 12 4.5 12H7.5C7.63261 12 7.75979 12.0527 7.85355 12.1464C7.94732 12.2402 8 12.3674 8 12.5V13.5C8 13.6326 7.94732 13.7598 7.85355 13.8536C7.75979 13.9473 7.63261 14 7.5 14H4.5C4.36739 14 4.24021 13.9473 4.14645 13.8536C4.05268 13.7598 4 13.6326 4 13.5V12.5ZM4 20.5C4 20.3674 4.05268 20.2402 4.14645 20.1464C4.24021 20.0527 4.36739 20 4.5 20H5.5C5.63261 20 5.75979 20.0527 5.85355 20.1464C5.94732 20.2402 6 20.3674 6 20.5V21.5C6 21.6326 5.94732 21.7598 5.85355 21.8536C5.75979 21.9473 5.63261 22 5.5 22H4.5C4.36739 22 4.24021 21.9473 4.14645 21.8536C4.05268 21.7598 4 21.6326 4 21.5V20.5ZM8 20.5C8 20.3674 8.05268 20.2402 8.14645 20.1464C8.24021 20.0527 8.36739 20 8.5 20H19.5C19.6326 20 19.7598 20.0527 19.8536 20.1464C19.9473 20.2402 20 20.3674 20 20.5V21.5C20 21.6326 19.9473 21.7598 19.8536 21.8536C19.7598 21.9473 19.6326 22 19.5 22H8.5C8.36739 22 8.24021 21.9473 8.14645 21.8536C8.05268 21.7598 8 21.6326 8 21.5V20.5Z"/></g><defs><clipPath id="clip0"><rect width="32" height="32" fill="#fff"/></clipPath></defs></svg>