<svg width="495" height="396" viewBox="0 0 495 396" fill="none" xmlns="http://www.w3.org/2000/svg">
<g id="undraw_teaching_f1cm 1">
<g id="Leaves1">
<path id="Vector" d="M44.1829 97.5895C65.7655 106.951 78.1669 126.323 78.1669 126.323C78.1669 126.323 55.5718 130.502 33.984 121.146C12.3963 111.789 0 92.4123 0 92.4123C0 92.4123 22.5951 88.2276 44.1829 97.5895Z" fill="#6C63FF"/>
<path id="Vector_2" d="M110.418 61.6464C117.094 50.6754 128.462 45.4512 128.462 45.4512C128.462 45.4512 128.984 57.9581 122.329 68.8977C115.674 79.8374 104.28 85.0564 104.28 85.0564C104.28 85.0564 103.737 72.5547 110.418 61.6464Z" fill="#6C63FF"/>
<path id="Vector_3" d="M61.3446 73.3854C66.1204 90.4479 79.284 101.68 79.284 101.68C79.284 101.68 84.707 85.2393 79.9312 68.1716C75.1554 51.1039 61.9866 39.877 61.9866 39.877C61.9866 39.877 56.5636 56.3177 61.3446 73.3854Z" fill="#46455B"/>
</g>
<g id="man_teaching">
<path id="Vector_4" opacity="0.1" d="M142.199 67.9155H105.068C102.926 67.9155 101.19 69.6534 101.19 71.7972V77.617C101.19 79.7608 102.926 81.4986 105.068 81.4986H142.199C144.341 81.4986 146.077 79.7608 146.077 77.617V71.7972C146.077 69.6534 144.341 67.9155 142.199 67.9155Z" fill="#6C63FF"/>
<path id="Vector_5" opacity="0.1" d="M189.175 81.4985H152.043C149.902 81.4985 148.165 83.2364 148.165 85.3802V91.2C148.165 93.3438 149.902 95.0817 152.043 95.0817H189.175C191.317 95.0817 193.053 93.3438 193.053 91.2V85.3802C193.053 83.2364 191.317 81.4985 189.175 81.4985Z" fill="#6C63FF"/>
<path id="Vector_6" opacity="0.1" d="M236.15 95.0815H199.019C196.877 95.0815 195.141 96.8194 195.141 98.9632V104.783C195.141 106.927 196.877 108.665 199.019 108.665H236.15C238.292 108.665 240.028 106.927 240.028 104.783V98.9632C240.028 96.8194 238.292 95.0815 236.15 95.0815Z" fill="#6C63FF"/>
<path id="Vector_7" opacity="0.1" d="M142.199 47.541H105.068C102.926 47.541 101.19 49.2789 101.19 51.4227V57.2425C101.19 59.3863 102.926 61.1241 105.068 61.1241H142.199C144.341 61.1241 146.077 59.3863 146.077 57.2425V51.4227C146.077 49.2789 144.341 47.541 142.199 47.541Z" fill="#6C63FF"/>
<path id="Vector_8" opacity="0.1" d="M189.175 61.124H152.043C149.902 61.124 148.165 62.8619 148.165 65.0057V70.8255C148.165 72.9693 149.902 74.7071 152.043 74.7071H189.175C191.317 74.7071 193.053 72.9693 193.053 70.8255V65.0057C193.053 62.8619 191.317 61.124 189.175 61.124Z" fill="#6C63FF"/>
<path id="Vector_9" opacity="0.1" d="M236.15 74.707H199.019C196.877 74.707 195.141 76.4449 195.141 78.5887V84.4085C195.141 86.5523 196.877 88.2901 199.019 88.2901H236.15C238.292 88.2901 240.028 86.5523 240.028 84.4085V78.5887C240.028 76.4449 238.292 74.707 236.15 74.707Z" fill="#6C63FF"/>
<path id="Vector_10" opacity="0.1" d="M288.345 67.9155H251.214C249.072 67.9155 247.335 69.6534 247.335 71.7972V77.617C247.335 79.7608 249.072 81.4986 251.214 81.4986H288.345C290.487 81.4986 292.223 79.7608 292.223 77.617V71.7972C292.223 69.6534 290.487 67.9155 288.345 67.9155Z" fill="#6C63FF"/>
<path id="Vector_11" opacity="0.1" d="M335.32 81.4985H298.189C296.047 81.4985 294.311 83.2364 294.311 85.3802V91.2C294.311 93.3438 296.047 95.0817 298.189 95.0817H335.32C337.462 95.0817 339.198 93.3438 339.198 91.2V85.3802C339.198 83.2364 337.462 81.4985 335.32 81.4985Z" fill="#6C63FF"/>
<path id="Vector_12" opacity="0.1" d="M382.296 95.0815H345.164C343.022 95.0815 341.286 96.8194 341.286 98.9632V104.783C341.286 106.927 343.022 108.665 345.164 108.665H382.296C384.437 108.665 386.174 106.927 386.174 104.783V98.9632C386.174 96.8194 384.437 95.0815 382.296 95.0815Z" fill="#6C63FF"/>
<path id="Vector_13" opacity="0.1" d="M288.345 47.541H251.214C249.072 47.541 247.335 49.2789 247.335 51.4227V57.2425C247.335 59.3863 249.072 61.1241 251.214 61.1241H288.345C290.487 61.1241 292.223 59.3863 292.223 57.2425V51.4227C292.223 49.2789 290.487 47.541 288.345 47.541Z" fill="#6C63FF"/>
<path id="Vector_14" opacity="0.1" d="M335.32 61.124H298.189C296.047 61.124 294.311 62.8619 294.311 65.0057V70.8255C294.311 72.9693 296.047 74.7071 298.189 74.7071H335.32C337.462 74.7071 339.198 72.9693 339.198 70.8255V65.0057C339.198 62.8619 337.462 61.124 335.32 61.124Z" fill="#6C63FF"/>
<path id="Vector_15" opacity="0.1" d="M382.296 74.707H345.164C343.022 74.707 341.286 76.4449 341.286 78.5887V84.4085C341.286 86.5523 343.022 88.2901 345.164 88.2901H382.296C384.437 88.2901 386.174 86.5523 386.174 84.4085V78.5887C386.174 76.4449 384.437 74.707 382.296 74.707Z" fill="#6C63FF"/>
<path id="Vector_16" opacity="0.1" d="M142.199 20.3745H105.068C102.926 20.3745 101.19 22.1124 101.19 24.2561V30.076C101.19 32.2198 102.926 33.9576 105.068 33.9576H142.199C144.341 33.9576 146.077 32.2198 146.077 30.076V24.2561C146.077 22.1124 144.341 20.3745 142.199 20.3745Z" fill="#6C63FF"/>
<path id="Vector_17" opacity="0.1" d="M189.175 33.958H152.043C149.902 33.958 148.165 35.6959 148.165 37.8396V43.6595C148.165 45.8033 149.902 47.5411 152.043 47.5411H189.175C191.317 47.5411 193.053 45.8033 193.053 43.6595V37.8396C193.053 35.6959 191.317 33.958 189.175 33.958Z" fill="#6C63FF"/>
<path id="Vector_18" opacity="0.1" d="M236.15 47.541H199.019C196.877 47.541 195.141 49.2789 195.141 51.4227V57.2425C195.141 59.3863 196.877 61.1241 199.019 61.1241H236.15C238.292 61.1241 240.028 59.3863 240.028 57.2425V51.4227C240.028 49.2789 238.292 47.541 236.15 47.541Z" fill="#6C63FF"/>
<path id="Vector_19" opacity="0.1" d="M142.199 0H105.068C102.926 0 101.19 1.73787 101.19 3.88164V9.70148C101.19 11.8452 102.926 13.5831 105.068 13.5831H142.199C144.341 13.5831 146.077 11.8452 146.077 9.70148V3.88164C146.077 1.73787 144.341 0 142.199 0Z" fill="#6C63FF"/>
<path id="Vector_20" opacity="0.1" d="M189.175 13.583H152.043C149.902 13.583 148.165 15.3209 148.165 17.4646V23.2845C148.165 25.4283 149.902 27.1661 152.043 27.1661H189.175C191.317 27.1661 193.053 25.4283 193.053 23.2845V17.4646C193.053 15.3209 191.317 13.583 189.175 13.583Z" fill="#6C63FF"/>
<path id="Vector_21" opacity="0.1" d="M236.15 27.166H199.019C196.877 27.166 195.141 28.9039 195.141 31.0477V36.8675C195.141 39.0113 196.877 40.7491 199.019 40.7491H236.15C238.292 40.7491 240.028 39.0113 240.028 36.8675V31.0477C240.028 28.9039 238.292 27.166 236.15 27.166Z" fill="#6C63FF"/>
<path id="Vector_22" opacity="0.1" d="M288.345 20.3745H251.214C249.072 20.3745 247.335 22.1124 247.335 24.2561V30.076C247.335 32.2198 249.072 33.9576 251.214 33.9576H288.345C290.487 33.9576 292.223 32.2198 292.223 30.076V24.2561C292.223 22.1124 290.487 20.3745 288.345 20.3745Z" fill="#6C63FF"/>
<path id="Vector_23" opacity="0.1" d="M335.32 33.958H298.189C296.047 33.958 294.311 35.6959 294.311 37.8396V43.6595C294.311 45.8033 296.047 47.5411 298.189 47.5411H335.32C337.462 47.5411 339.198 45.8033 339.198 43.6595V37.8396C339.198 35.6959 337.462 33.958 335.32 33.958Z" fill="#6C63FF"/>
<path id="Vector_24" opacity="0.1" d="M382.296 47.541H345.164C343.022 47.541 341.286 49.2789 341.286 51.4227V57.2425C341.286 59.3863 343.022 61.1241 345.164 61.1241H382.296C384.437 61.1241 386.174 59.3863 386.174 57.2425V51.4227C386.174 49.2789 384.437 47.541 382.296 47.541Z" fill="#6C63FF"/>
<path id="Vector_25" opacity="0.1" d="M288.345 0H251.214C249.072 0 247.335 1.73787 247.335 3.88164V9.70148C247.335 11.8452 249.072 13.5831 251.214 13.5831H288.345C290.487 13.5831 292.223 11.8452 292.223 9.70148V3.88164C292.223 1.73787 290.487 0 288.345 0Z" fill="#6C63FF"/>
<path id="Vector_26" opacity="0.1" d="M335.32 13.583H298.189C296.047 13.583 294.311 15.3209 294.311 17.4646V23.2845C294.311 25.4283 296.047 27.1661 298.189 27.1661H335.32C337.462 27.1661 339.198 25.4283 339.198 23.2845V17.4646C339.198 15.3209 337.462 13.583 335.32 13.583Z" fill="#6C63FF"/>
<path id="Vector_27" opacity="0.1" d="M382.296 27.166H345.164C343.022 27.166 341.286 28.9039 341.286 31.0477V36.8675C341.286 39.0113 343.022 40.7491 345.164 40.7491H382.296C384.437 40.7491 386.174 39.0113 386.174 36.8675V31.0477C386.174 28.9039 384.437 27.166 382.296 27.166Z" fill="#6C63FF"/>
<path id="Vector_28" opacity="0.1" d="M142.199 309.799H105.068C102.926 309.799 101.19 311.537 101.19 313.681V319.501C101.19 321.645 102.926 323.382 105.068 323.382H142.199C144.341 323.382 146.077 321.645 146.077 319.501V313.681C146.077 311.537 144.341 309.799 142.199 309.799Z" fill="#6C63FF"/>
<path id="Vector_29" opacity="0.1" d="M189.175 323.383H152.043C149.902 323.383 148.165 325.121 148.165 327.264V333.084C148.165 335.228 149.902 336.966 152.043 336.966H189.175C191.317 336.966 193.053 335.228 193.053 333.084V327.264C193.053 325.121 191.317 323.383 189.175 323.383Z" fill="#6C63FF"/>
<path id="Vector_30" opacity="0.1" d="M236.15 336.966H199.019C196.877 336.966 195.141 338.704 195.141 340.847V346.667C195.141 348.811 196.877 350.549 199.019 350.549H236.15C238.292 350.549 240.028 348.811 240.028 346.667V340.847C240.028 338.704 238.292 336.966 236.15 336.966Z" fill="#6C63FF"/>
<path id="Vector_31" opacity="0.1" d="M142.199 289.425H105.068C102.926 289.425 101.19 291.163 101.19 293.306V299.126C101.19 301.27 102.926 303.008 105.068 303.008H142.199C144.341 303.008 146.077 301.27 146.077 299.126V293.306C146.077 291.163 144.341 289.425 142.199 289.425Z" fill="#6C63FF"/>
<path id="Vector_32" opacity="0.1" d="M189.175 303.008H152.043C149.902 303.008 148.165 304.746 148.165 306.889V312.709C148.165 314.853 149.902 316.591 152.043 316.591H189.175C191.317 316.591 193.053 314.853 193.053 312.709V306.889C193.053 304.746 191.317 303.008 189.175 303.008Z" fill="#6C63FF"/>
<path id="Vector_33" opacity="0.1" d="M236.15 316.591H199.019C196.877 316.591 195.141 318.329 195.141 320.473V326.293C195.141 328.437 196.877 330.174 199.019 330.174H236.15C238.292 330.174 240.028 328.437 240.028 326.293V320.473C240.028 318.329 238.292 316.591 236.15 316.591Z" fill="#6C63FF"/>
<path id="Vector_34" opacity="0.1" d="M288.345 309.799H251.214C249.072 309.799 247.335 311.537 247.335 313.681V319.501C247.335 321.645 249.072 323.382 251.214 323.382H288.345C290.487 323.382 292.223 321.645 292.223 319.501V313.681C292.223 311.537 290.487 309.799 288.345 309.799Z" fill="#6C63FF"/>
<path id="Vector_35" opacity="0.1" d="M335.32 323.383H298.189C296.047 323.383 294.311 325.121 294.311 327.264V333.084C294.311 335.228 296.047 336.966 298.189 336.966H335.32C337.462 336.966 339.198 335.228 339.198 333.084V327.264C339.198 325.121 337.462 323.383 335.32 323.383Z" fill="#6C63FF"/>
<path id="Vector_36" opacity="0.1" d="M382.296 336.966H345.164C343.022 336.966 341.286 338.704 341.286 340.847V346.667C341.286 348.811 343.022 350.549 345.164 350.549H382.296C384.437 350.549 386.174 348.811 386.174 346.667V340.847C386.174 338.704 384.437 336.966 382.296 336.966Z" fill="#6C63FF"/>
<path id="Vector_37" opacity="0.1" d="M288.345 289.425H251.214C249.072 289.425 247.335 291.163 247.335 293.306V299.126C247.335 301.27 249.072 303.008 251.214 303.008H288.345C290.487 303.008 292.223 301.27 292.223 299.126V293.306C292.223 291.163 290.487 289.425 288.345 289.425Z" fill="#6C63FF"/>
<path id="Vector_38" opacity="0.1" d="M335.32 303.008H298.189C296.047 303.008 294.311 304.746 294.311 306.889V312.709C294.311 314.853 296.047 316.591 298.189 316.591H335.32C337.462 316.591 339.198 314.853 339.198 312.709V306.889C339.198 304.746 337.462 303.008 335.32 303.008Z" fill="#6C63FF"/>
<path id="Vector_39" opacity="0.1" d="M382.296 316.591H345.164C343.022 316.591 341.286 318.329 341.286 320.473V326.293C341.286 328.437 343.022 330.174 345.164 330.174H382.296C384.437 330.174 386.174 328.437 386.174 326.293V320.473C386.174 318.329 384.437 316.591 382.296 316.591Z" fill="#6C63FF"/>
<path id="Vector_40" opacity="0.1" d="M142.199 262.259H105.068C102.926 262.259 101.19 263.997 101.19 266.14V271.96C101.19 274.104 102.926 275.842 105.068 275.842H142.199C144.341 275.842 146.077 274.104 146.077 271.96V266.14C146.077 263.997 144.341 262.259 142.199 262.259Z" fill="#6C63FF"/>
<path id="Vector_41" opacity="0.1" d="M189.175 275.842H152.043C149.902 275.842 148.165 277.58 148.165 279.723V285.543C148.165 287.687 149.902 289.425 152.043 289.425H189.175C191.317 289.425 193.053 287.687 193.053 285.543V279.723C193.053 277.58 191.317 275.842 189.175 275.842Z" fill="#6C63FF"/>
<path id="Vector_42" opacity="0.1" d="M236.15 289.425H199.019C196.877 289.425 195.141 291.163 195.141 293.306V299.126C195.141 301.27 196.877 303.008 199.019 303.008H236.15C238.292 303.008 240.028 301.27 240.028 299.126V293.306C240.028 291.163 238.292 289.425 236.15 289.425Z" fill="#6C63FF"/>
<path id="Vector_43" opacity="0.1" d="M142.199 241.884H105.068C102.926 241.884 101.19 243.622 101.19 245.765V251.585C101.19 253.729 102.926 255.467 105.068 255.467H142.199C144.341 255.467 146.077 253.729 146.077 251.585V245.765C146.077 243.622 144.341 241.884 142.199 241.884Z" fill="#6C63FF"/>
<path id="Vector_44" opacity="0.1" d="M189.175 255.467H152.043C149.902 255.467 148.165 257.205 148.165 259.349V265.169C148.165 267.313 149.902 269.05 152.043 269.05H189.175C191.317 269.05 193.053 267.313 193.053 265.169V259.349C193.053 257.205 191.317 255.467 189.175 255.467Z" fill="#6C63FF"/>
<path id="Vector_45" opacity="0.1" d="M236.15 269.05H199.019C196.877 269.05 195.141 270.788 195.141 272.932V278.752C195.141 280.896 196.877 282.633 199.019 282.633H236.15C238.292 282.633 240.028 280.896 240.028 278.752V272.932C240.028 270.788 238.292 269.05 236.15 269.05Z" fill="#6C63FF"/>
<path id="Vector_46" opacity="0.1" d="M288.345 262.259H251.214C249.072 262.259 247.335 263.997 247.335 266.14V271.96C247.335 274.104 249.072 275.842 251.214 275.842H288.345C290.487 275.842 292.223 274.104 292.223 271.96V266.14C292.223 263.997 290.487 262.259 288.345 262.259Z" fill="#6C63FF"/>
<path id="Vector_47" opacity="0.1" d="M335.32 275.842H298.189C296.047 275.842 294.311 277.58 294.311 279.723V285.543C294.311 287.687 296.047 289.425 298.189 289.425H335.32C337.462 289.425 339.198 287.687 339.198 285.543V279.723C339.198 277.58 337.462 275.842 335.32 275.842Z" fill="#6C63FF"/>
<path id="Vector_48" opacity="0.1" d="M382.296 289.425H345.164C343.022 289.425 341.286 291.163 341.286 293.306V299.126C341.286 301.27 343.022 303.008 345.164 303.008H382.296C384.437 303.008 386.174 301.27 386.174 299.126V293.306C386.174 291.163 384.437 289.425 382.296 289.425Z" fill="#6C63FF"/>
<path id="Vector_49" opacity="0.1" d="M288.345 241.884H251.214C249.072 241.884 247.335 243.622 247.335 245.765V251.585C247.335 253.729 249.072 255.467 251.214 255.467H288.345C290.487 255.467 292.223 253.729 292.223 251.585V245.765C292.223 243.622 290.487 241.884 288.345 241.884Z" fill="#6C63FF"/>
<path id="Vector_50" opacity="0.1" d="M335.32 255.467H298.189C296.047 255.467 294.311 257.205 294.311 259.349V265.169C294.311 267.313 296.047 269.05 298.189 269.05H335.32C337.462 269.05 339.198 267.313 339.198 265.169V259.349C339.198 257.205 337.462 255.467 335.32 255.467Z" fill="#6C63FF"/>
<path id="Vector_51" opacity="0.1" d="M382.296 269.05H345.164C343.022 269.05 341.286 270.788 341.286 272.932V278.752C341.286 280.896 343.022 282.633 345.164 282.633H382.296C384.437 282.633 386.174 280.896 386.174 278.752V272.932C386.174 270.788 384.437 269.05 382.296 269.05Z" fill="#6C63FF"/>
<path id="Vector_52" opacity="0.1" d="M251.772 396C378.176 396 480.646 387.58 480.646 377.193C480.646 366.806 378.176 358.385 251.772 358.385C125.368 358.385 22.8979 366.806 22.8979 377.193C22.8979 387.58 125.368 396 251.772 396Z" fill="#6C63FF"/>
<path id="Vector_53" d="M438.781 72.6172H65.8072C63.7288 72.6172 62.0439 74.3036 62.0439 76.3839V259.536C62.0439 261.617 63.7288 263.303 65.8072 263.303H438.781C440.859 263.303 442.544 261.617 442.544 259.536V76.3839C442.544 74.3036 440.859 72.6172 438.781 72.6172Z" fill="#3F3D56"/>
<path id="Vector_54" opacity="0.1" d="M62.0439 251.81H442.544V259.537C442.544 260.536 442.148 261.494 441.442 262.2C440.736 262.907 439.779 263.303 438.781 263.303H65.8072C64.8091 263.303 63.8519 262.907 63.1462 262.2C62.4404 261.494 62.0439 260.536 62.0439 259.537V251.81Z" fill="black"/>
<path id="Vector_55" d="M125.983 237.705H100.407C99.6865 237.705 99.1023 238.289 99.1023 239.011V250.504C99.1023 251.225 99.6865 251.81 100.407 251.81H125.983C126.703 251.81 127.287 251.225 127.287 250.504V239.011C127.287 238.289 126.703 237.705 125.983 237.705Z" fill="#6C63FF"/>
<path id="Vector_56" d="M153.385 249.72H136.161C135.584 249.72 135.117 250.188 135.117 250.765C135.117 251.342 135.584 251.81 136.161 251.81H153.385C153.961 251.81 154.429 251.342 154.429 250.765C154.429 250.188 153.961 249.72 153.385 249.72Z" fill="#6C63FF"/>
<path id="Vector_57" d="M118.941 97.9689C132.715 100.513 146.766 97.9689 160.483 96.2449L202.171 91.0206C203.857 90.8064 206.31 89.7981 207.301 91.8617C207.86 93.0163 207.484 95.5187 207.526 96.8457C207.635 100.503 207.625 104.16 207.526 107.817C207.338 114.807 206.826 121.781 206.174 128.74C204.906 142.36 203.11 155.906 202.212 169.578C201.753 176.537 201.523 183.516 201.727 190.475C201.774 192.136 201.842 193.798 201.941 195.454C202.051 197.308 202.881 200.062 200.861 201.3C199.707 202.01 197.437 201.974 196.116 202.183C194.028 202.512 191.941 202.773 189.811 202.987C175.776 204.393 161.558 203.807 147.471 203.724L104.932 203.504L94.5555 203.447C93.616 203.447 90.2285 204.011 89.6492 202.893C89.4038 202.418 90.0563 200.192 90.1711 199.597C90.3312 198.615 90.5051 197.634 90.693 196.655C91.904 189.786 93.3341 182.957 94.7747 176.134C97.8698 161.507 101.038 146.805 102.312 131.864C102.943 124.367 102.526 116.802 103.298 109.321C103.658 105.847 104.086 98.0943 108.705 97.786C112.62 97.5248 116.65 97.786 120.575 97.786C120.782 97.786 120.981 97.7035 121.128 97.5565C121.275 97.4096 121.357 97.2102 121.357 97.0024C121.357 96.7946 121.275 96.5952 121.128 96.4483C120.981 96.3013 120.782 96.2188 120.575 96.2188C116.869 96.2188 113.158 96.1195 109.452 96.1927C106.988 96.2397 105.276 96.8248 104.102 99.0921C101.101 104.912 101.409 112.675 101.315 119.028C101.09 134.236 98.7571 149.12 95.7194 163.993C94.1901 171.48 92.5407 178.94 91.0219 186.432C90.3068 190.01 89.6231 193.599 88.9967 197.199C88.7044 198.912 87.2273 202.689 88.527 204.262C89.8266 205.834 93.8247 204.988 95.615 204.999L108.069 205.072L131.932 205.208C147.351 205.296 162.821 205.73 178.234 205.275C185.594 205.056 193.371 204.753 200.537 202.992C202.672 202.47 203.7 201.488 203.784 199.21C203.909 195.679 203.335 192.037 203.262 188.49C202.74 158.137 209.864 128.207 209.133 97.8435C209.087 95.7799 209.864 90.5765 207.609 89.3279C206.597 88.7637 205.281 89.072 204.217 89.1973C202.181 89.4324 200.151 89.7198 198.115 89.9601L171.678 93.2618C163.228 94.3067 154.783 95.4351 146.317 96.3964C137.355 97.4412 128.305 98.0629 119.374 96.3964C118.388 96.2135 117.965 97.7234 118.957 97.9062L118.941 97.9689Z" fill="#6C63FF"/>
<path id="Vector_58" d="M101.352 128.376L205.648 123.257C206.655 123.204 206.66 121.637 205.648 121.689L101.352 126.809C100.35 126.856 100.345 128.423 101.352 128.376Z" fill="#6C63FF"/>
<path id="Vector_59" d="M133.483 115.456C133.191 115.766 132.98 116.142 132.866 116.552C132.753 116.962 132.741 117.393 132.832 117.809C132.923 118.224 133.114 118.611 133.389 118.936C133.663 119.261 134.013 119.514 134.407 119.672C135.811 120.315 137.46 119.777 138.854 119.427C140.942 118.904 143.03 118.439 145.175 118.058C149.844 117.231 154.573 116.79 159.314 116.742C161.475 116.715 163.62 116.815 165.781 116.909C167.347 116.971 169.033 117.097 170.359 116.125C171.872 115.018 172.363 112.855 170.881 111.507C168.793 109.6 164.294 110.708 161.882 110.906C153.132 111.634 144.439 112.932 135.858 114.793C134.877 115.002 135.289 116.517 136.276 116.303C141.937 115.08 147.642 114.098 153.39 113.356C156.216 113.008 159.046 112.714 161.882 112.473C163.218 112.364 164.555 112.264 165.891 112.186C166.413 112.155 166.966 112.097 167.498 112.113C169.153 112.149 169.346 111.852 168.354 113.853C167.472 115.624 167.754 115.42 166.225 115.362C165.578 115.362 164.93 115.289 164.283 115.258C162.958 115.202 161.632 115.173 160.306 115.169C157.484 115.169 154.669 115.305 151.861 115.577C149.481 115.806 147.106 116.13 144.752 116.548C143.28 116.809 141.819 117.112 140.362 117.447C139.72 117.598 139.073 117.755 138.431 117.917C138.123 118.001 137.81 118.074 137.502 118.152C136.361 118.549 135.388 118.027 134.584 116.585C135.284 115.859 134.183 114.746 133.478 115.477L133.483 115.456Z" fill="#6C63FF"/>
<path id="Vector_60" d="M152.388 137.754C144.835 137.461 136.677 139.504 131.703 145.59C127.809 150.349 125.591 158.515 129.714 163.875C134.146 169.622 143.864 168.608 149.726 166.158C155.927 163.546 162.712 158.16 164.575 151.42C166.898 143.004 159.356 136.641 151.501 136.547C150.493 136.547 150.493 138.114 151.501 138.114C155.979 138.166 160.374 140.089 162.461 144.263C164.648 148.662 162.764 153.28 159.852 156.801C155.186 162.407 147.889 166.633 140.456 166.513C135.994 166.445 131.061 164.915 129.678 160.202C128.54 156.383 129.407 152.209 131.39 148.824C135.68 141.51 144.413 139.034 152.419 139.347C153.427 139.384 153.427 137.816 152.419 137.78L152.388 137.754Z" fill="#6C63FF"/>
<path id="Vector_61" d="M144.888 149.362C144.566 149.242 144.219 149.206 143.879 149.257C143.539 149.308 143.218 149.444 142.945 149.653C142.672 149.861 142.456 150.136 142.318 150.45C142.179 150.765 142.122 151.109 142.153 151.451C142.309 153.489 144.554 154.064 146.24 153.943C147.696 153.818 149.397 153.28 148.886 151.457C148.792 151.134 148.629 150.835 148.409 150.581C148.19 150.327 147.918 150.123 147.612 149.983C147.145 149.798 146.639 149.735 146.14 149.801C145.947 149.801 144.178 150.448 144.929 149.67L143.698 149.508C143.834 149.643 143.939 149.807 144.004 149.988C144.069 150.169 144.093 150.362 144.073 150.553C144.076 150.689 144.114 150.823 144.183 150.941C144.252 151.058 144.351 151.156 144.469 151.224C144.588 151.292 144.722 151.328 144.858 151.328C144.995 151.329 145.129 151.294 145.248 151.227C145.427 151.152 145.623 151.128 145.815 151.159C146.007 151.189 146.186 151.273 146.333 151.4C146.48 151.527 146.589 151.692 146.647 151.878C146.705 152.063 146.71 152.261 146.662 152.449C146.62 152.63 146.643 152.82 146.728 152.986C146.812 153.151 146.952 153.282 147.123 153.354C147.294 153.427 147.485 153.437 147.662 153.382C147.839 153.327 147.992 153.212 148.092 153.055C148.614 152.115 149.246 150.245 148.463 149.263C147.941 148.599 146.934 148.798 146.307 149.184C145.921 149.458 145.561 149.768 145.232 150.109C144.601 150.668 144.188 150.929 144.423 149.858C144.815 147.909 146.673 146.358 148.369 145.579L147.221 144.697C146.619 146.961 145.542 149.071 144.063 150.887L145.399 151.441C145.361 150.724 145.545 150.012 145.927 149.403C146.308 148.795 146.867 148.319 147.529 148.04H146.761L147.169 148.709C147.017 149.696 148.526 150.119 148.677 149.121C148.875 147.831 148.061 146.154 146.553 146.786C144.752 147.539 143.818 149.602 143.854 151.441C143.854 152.068 144.742 152.554 145.196 152C146.856 149.982 148.067 147.633 148.75 145.109C148.786 144.96 148.778 144.802 148.727 144.657C148.676 144.512 148.583 144.385 148.461 144.291C148.339 144.198 148.192 144.142 148.038 144.13C147.885 144.119 147.731 144.152 147.597 144.226C146.033 144.934 144.712 146.086 143.797 147.539C143.16 148.583 142.361 150.213 143.009 151.415C143.115 151.607 143.258 151.776 143.43 151.913C143.602 152.05 143.799 152.151 144.01 152.21C144.221 152.27 144.442 152.287 144.66 152.261C144.878 152.235 145.088 152.166 145.279 152.058C145.762 151.771 146.203 151.42 146.589 151.013C146.782 150.84 146.996 150.542 147.252 150.49C147.482 150.333 147.471 150.422 147.216 150.767C147.212 151.308 147.055 151.838 146.761 152.293L148.192 152.893C148.32 152.406 148.305 151.891 148.148 151.411C147.991 150.932 147.699 150.508 147.306 150.192C146.914 149.875 146.438 149.679 145.937 149.627C145.435 149.576 144.929 149.67 144.481 149.9L145.66 150.579C145.685 149.914 145.476 149.262 145.07 148.735C145.009 148.633 144.925 148.547 144.826 148.482C144.726 148.417 144.614 148.375 144.496 148.36C144.378 148.344 144.258 148.355 144.146 148.392C144.033 148.429 143.93 148.491 143.844 148.573C143.05 149.404 142.899 150.84 143.896 151.608C144.642 152.178 145.008 151.608 145.827 151.478C148.609 151.117 146.986 152.371 146.005 152.413C145.566 152.46 145.122 152.428 144.695 152.319C143.605 151.95 143.538 151.474 144.491 150.892C145.425 151.274 145.827 149.759 144.909 149.383L144.888 149.362Z" fill="#6C63FF"/>
<path id="Vector_62" d="M143.63 152.225C144.272 154.314 141.62 155.004 140.362 155.725C139.48 156.22 138.71 156.895 138.102 157.705C136.787 159.471 136.296 161.717 135.863 163.833C135.665 164.82 137.173 165.238 137.377 164.251C137.616 162.696 138.06 161.18 138.697 159.742C139.637 157.872 140.983 157.245 142.737 156.284C144.491 155.323 145.759 153.834 145.138 151.807C144.846 150.846 143.332 151.258 143.63 152.225Z" fill="#6C63FF"/>
<path id="Vector_63" d="M146.239 151.175C145.866 151.226 145.525 151.416 145.284 151.706C145.042 151.996 144.918 152.365 144.934 152.742C144.934 153.364 145.347 153.761 145.629 154.257C146.298 155.273 146.808 156.384 147.142 157.554C147.393 158.677 147.638 160.688 147.054 161.733C145.973 163.671 144.021 163.3 142.356 163.3C140.79 163.3 139.579 163.823 139.631 161.639C139.663 160.411 140.519 159.168 141.197 158.201L139.767 158.013C140.069 159.609 140.228 161.228 140.242 162.851C140.242 163.577 141.354 163.98 141.698 163.243C142.537 161.476 143.203 159.632 143.687 157.736L142.147 157.528L142.419 161.498C142.423 161.667 142.482 161.831 142.587 161.964C142.691 162.098 142.836 162.194 142.999 162.238C143.163 162.283 143.336 162.273 143.494 162.212C143.652 162.15 143.785 162.039 143.875 161.895C144.058 161.693 144.192 161.452 144.266 161.19C144.319 160.944 143.838 159.288 143.645 159.878L145.18 160.087L145.289 156.315L143.723 156.524C144.054 157.588 144.154 158.71 144.016 159.816C143.917 160.688 145.383 160.887 145.582 160.025L146.563 154.957L145.133 155.14C145.473 155.841 145.566 156.636 145.399 157.397C145.284 158.4 146.85 158.39 146.965 157.397C147.098 156.357 146.931 155.3 146.485 154.351C146.405 154.22 146.29 154.116 146.152 154.049C146.014 153.983 145.86 153.959 145.708 153.978C145.557 153.998 145.414 154.062 145.298 154.162C145.182 154.261 145.097 154.392 145.054 154.539L144.068 159.607L145.608 159.816C145.764 158.57 145.645 157.306 145.258 156.112C145.206 155.932 145.091 155.777 144.934 155.674C144.777 155.572 144.589 155.529 144.403 155.554C144.218 155.578 144.047 155.669 143.922 155.809C143.798 155.948 143.727 156.128 143.723 156.315L143.614 160.087C143.614 161.002 144.882 161.132 145.154 160.296L145.237 160.04C145.273 159.907 145.274 159.766 145.239 159.633C145.204 159.499 145.135 159.377 145.039 159.278C143.416 157.512 143.087 160.323 142.523 161.101L143.984 161.498L143.713 157.528C143.656 156.681 142.403 156.42 142.173 157.319C141.732 159.086 141.12 160.806 140.346 162.454L141.808 162.851C141.791 161.087 141.616 159.328 141.286 157.595C141.15 156.874 140.206 156.906 139.856 157.407C138.812 158.912 137.006 162.198 138.4 164C139.616 165.568 143.442 164.962 145.075 164.862C147.654 164.716 148.588 163.081 148.87 160.646C149.004 159.481 148.939 158.3 148.677 157.157C148.536 156.54 147.111 152.632 146.683 152.711C147.675 152.528 147.252 151.013 146.265 151.196L146.239 151.175Z" fill="#6C63FF"/>
<path id="Vector_64" d="M143.207 154.696L138.932 160.343L140.284 161.132L143.416 156.598L141.986 155.992L140.425 161.952C140.383 162.133 140.406 162.323 140.49 162.489C140.574 162.655 140.714 162.785 140.885 162.858C141.056 162.93 141.247 162.94 141.425 162.885C141.602 162.83 141.754 162.715 141.855 162.558C142.565 161.381 143.363 160.258 144.24 159.199L142.935 158.437C142.585 159.786 141.909 161.029 140.968 162.057L142.278 162.82C142.358 162.098 142.55 161.393 142.847 160.73C143.249 159.826 141.975 159.027 141.495 159.936C141.053 160.764 140.549 161.557 139.986 162.308L141.417 162.496L141.735 161.007L140.305 160.819L140.535 162.125C140.572 162.256 140.643 162.376 140.741 162.471C140.839 162.567 140.96 162.635 141.092 162.67C141.224 162.705 141.363 162.705 141.495 162.67C141.627 162.634 141.747 162.566 141.845 162.47C143.168 161.098 144.23 159.496 144.976 157.742H143.63C143.984 158.395 144.232 159.1 144.366 159.831C144.554 160.772 145.801 160.422 145.9 159.622C146.124 157.872 146.239 156.11 146.245 154.346H144.679V157.632C144.679 158.484 146.072 158.734 146.219 157.841C146.322 157.048 146.583 156.285 146.986 155.595H145.613C145.944 156.129 146.124 156.742 146.135 157.371C146.135 157.579 146.218 157.778 146.364 157.925C146.511 158.072 146.71 158.154 146.918 158.154C147.126 158.154 147.325 158.072 147.472 157.925C147.618 157.778 147.701 157.579 147.701 157.371L147.899 156.326H146.391C146.542 157.251 147.116 162.459 145.075 161.848C144.731 161.764 144.632 161.785 144.778 161.905L145.242 160.913L146.333 158.598L144.872 158.201C144.966 159.278 145.065 160.814 144.418 161.733C143.896 162.48 142.288 162.778 141.469 162.339C140.928 161.953 140.465 161.467 140.107 160.908L139.037 161.952C139.903 162.585 141.307 164.136 142.424 164.225C143.275 164.293 143.99 163.588 144.548 163.023C145.405 162.137 146.073 161.086 146.512 159.934C146.95 158.782 147.151 157.553 147.101 156.321C147.101 156.113 147.018 155.914 146.871 155.767C146.724 155.62 146.525 155.537 146.318 155.537C146.11 155.537 145.911 155.62 145.764 155.767C145.617 155.914 145.535 156.113 145.535 156.321V158.107C145.535 158.315 145.617 158.515 145.764 158.662C145.911 158.808 146.11 158.891 146.318 158.891C146.525 158.891 146.724 158.808 146.871 158.662C147.018 158.515 147.101 158.315 147.101 158.107V153.724C147.101 153.516 147.018 153.317 146.871 153.17C146.724 153.023 146.525 152.941 146.318 152.941C146.11 152.941 145.911 153.023 145.764 153.17C145.617 153.317 145.535 153.516 145.535 153.724C145.532 154.775 145.441 155.823 145.263 156.859L146.803 157.068C146.681 155.82 146.623 154.566 146.631 153.312C146.628 153.124 146.559 152.943 146.434 152.802C146.31 152.662 146.139 152.571 145.954 152.545C145.768 152.52 145.579 152.562 145.422 152.665C145.264 152.767 145.149 152.922 145.096 153.103C144.861 154.1 144.574 155.083 144.298 156.059L145.728 155.871L145.618 155.453C145.545 154.456 143.979 154.45 144.052 155.453C144.07 155.876 144.18 156.29 144.376 156.665C144.679 157.303 145.624 157.078 145.806 156.477C146.104 155.495 146.37 154.513 146.605 153.52L145.065 153.312C145.057 154.566 145.115 155.82 145.237 157.068C145.316 157.872 146.61 158.217 146.772 157.277C146.98 156.097 147.09 154.902 147.101 153.703H145.535V158.087H147.101V156.3H145.535C145.627 158.271 144.943 160.199 143.63 161.67C143.426 161.902 143.206 162.118 142.972 162.318C142.601 162.673 142.262 162.621 141.965 162.156C141.223 161.848 140.456 161.054 139.809 160.589C139.162 160.124 138.274 161.043 138.734 161.66C139.934 163.259 141.725 165.04 143.953 164.272C146.297 163.441 146.615 160.265 146.438 158.175C146.38 157.48 145.342 157.01 144.982 157.783C144.46 158.886 143.938 159.983 143.416 161.09C143.233 161.477 142.894 162.01 142.946 162.47C143.118 163.645 144.543 163.452 145.42 163.384C148.818 163.128 148.28 158.306 147.889 155.882C147.758 155.077 146.589 155.203 146.38 155.882C146.214 156.359 146.128 156.86 146.125 157.366H147.69C147.634 156.467 147.383 155.592 146.954 154.8C146.884 154.684 146.785 154.587 146.667 154.52C146.548 154.453 146.415 154.417 146.279 154.417C146.142 154.417 146.009 154.453 145.89 154.52C145.772 154.587 145.673 154.684 145.603 154.8C145.136 155.607 144.821 156.492 144.674 157.413L146.239 157.622V154.335C146.239 154.128 146.157 153.928 146.01 153.781C145.863 153.634 145.664 153.552 145.456 153.552C145.249 153.552 145.05 153.634 144.903 153.781C144.756 153.928 144.674 154.128 144.674 154.335C144.668 156.1 144.553 157.862 144.329 159.612L145.869 159.403C145.692 158.549 145.391 157.725 144.976 156.958C144.906 156.841 144.807 156.744 144.689 156.677C144.57 156.61 144.437 156.575 144.3 156.575C144.164 156.575 144.03 156.61 143.912 156.677C143.794 156.744 143.694 156.841 143.624 156.958C142.944 158.594 141.965 160.089 140.738 161.367L142.048 161.712L141.819 160.406C141.698 159.711 140.717 159.69 140.388 160.218C140.129 160.611 139.953 161.053 139.871 161.517C139.79 161.98 139.804 162.456 139.913 162.914C140.044 163.656 140.983 163.577 141.344 163.102C141.906 162.353 142.41 161.562 142.852 160.735L141.5 159.941C141.139 160.722 140.893 161.551 140.769 162.402C140.675 163.091 141.495 163.812 142.079 163.165C143.202 161.936 144.014 160.456 144.449 158.849C144.642 158.139 143.661 157.465 143.139 158.087C142.179 159.238 141.306 160.461 140.529 161.743L141.959 162.35L143.551 156.41C143.593 156.229 143.57 156.039 143.486 155.873C143.402 155.707 143.262 155.577 143.091 155.504C142.92 155.432 142.729 155.422 142.552 155.477C142.374 155.532 142.222 155.647 142.121 155.803L138.99 160.343C138.405 161.185 139.746 161.911 140.341 161.132L144.6 155.49C145.206 154.685 143.849 153.923 143.249 154.696H143.207Z" fill="#6C63FF"/>
<path id="Vector_65" d="M209.797 173.55C216.06 169.716 221.04 163.995 226.572 159.21C232.575 154.022 238.875 149.19 245.362 144.613C257.962 135.732 271.194 127.786 284.415 119.86C284.586 119.752 284.709 119.581 284.757 119.384C284.805 119.187 284.775 118.979 284.672 118.804C284.57 118.628 284.404 118.499 284.209 118.444C284.014 118.389 283.805 118.412 283.627 118.507C270.406 126.433 257.169 134.363 244.569 143.26C238.624 147.439 232.82 151.87 227.256 156.571C221.202 161.691 215.81 168.065 208.988 172.197C208.127 172.72 208.915 174.078 209.776 173.55H209.797Z" fill="#6C63FF"/>
<path id="Vector_66" d="M304.63 95.526C297.844 96.2156 290.537 97.9448 286.362 103.885C282.755 108.994 282.833 117.907 286.221 123.152C290.067 129.113 297.928 129.327 304.035 127.399C310.141 125.472 316.462 122.091 316.405 114.788C316.374 110.87 314.959 106.79 313.398 103.237C312.052 100.17 309.666 97.4903 306.055 97.8299C305.058 97.9239 305.047 99.4912 306.055 99.3972C310.893 98.9479 312.448 104.7 313.597 108.331C314.641 111.721 315.606 115.734 313.967 119.103C312.328 122.473 308.377 124.192 305 125.425C301.347 126.751 297.333 127.561 293.517 126.469C285.96 124.354 283.872 114.767 286.048 107.965C288.554 100.129 297.427 97.8247 304.656 97.0933C305.647 96.994 305.658 95.4267 304.656 95.526H304.63Z" fill="#6C63FF"/>
<path id="Vector_67" d="M315.069 156.128C308.284 156.817 300.976 158.546 296.801 164.486C293.194 169.596 293.272 178.508 296.66 183.754C300.507 189.714 308.367 189.929 314.474 188.001C320.581 186.073 326.901 182.693 326.844 175.389C326.813 171.471 325.398 167.391 323.838 163.839C322.491 160.772 320.106 158.092 316.494 158.431C315.497 158.526 315.486 160.093 316.494 159.999C321.332 159.549 322.888 165.301 324.036 168.932C325.08 172.323 326.045 176.335 324.407 179.705C322.768 183.074 318.816 184.793 315.439 186.026C311.786 187.353 307.772 188.163 303.957 187.071C296.399 184.955 294.311 175.369 296.488 168.567C298.993 160.73 307.866 158.426 315.095 157.695C316.087 157.596 316.097 156.028 315.095 156.128H315.069Z" fill="#6C63FF"/>
<path id="Vector_68" d="M281.189 132.722L286.132 138.364C286.23 138.458 286.35 138.526 286.482 138.56C286.614 138.594 286.752 138.593 286.883 138.558C287.015 138.523 287.135 138.454 287.232 138.359C287.329 138.263 287.399 138.145 287.437 138.014C288.481 135.266 288.282 132.419 288.528 129.53C288.798 126.544 289.547 123.621 290.746 120.873C293.154 115.3 297.237 110.616 302.427 107.473C303.288 106.95 302.5 105.592 301.639 106.12C296.521 109.204 292.416 113.718 289.827 119.107C288.56 121.729 287.681 124.522 287.218 127.398C286.696 130.789 287.171 134.341 285.918 137.596L287.228 137.246L282.311 131.614C281.643 130.857 280.542 131.969 281.205 132.722H281.189Z" fill="#6C63FF"/>
<path id="Vector_69" d="M212.318 179.658C239.24 178.836 266.169 178.661 293.105 179.135C294.113 179.135 294.113 177.568 293.105 177.568C266.176 177.087 239.247 177.261 212.318 178.09C211.311 178.122 211.305 179.689 212.318 179.658Z" fill="#6C63FF"/>
<path id="Vector_70" d="M298.732 164.204C307.935 167.819 316.788 172.272 325.179 177.505C326.035 178.027 326.823 176.685 325.967 176.152C317.465 170.854 308.495 166.349 299.17 162.694C298.236 162.323 297.829 163.838 298.758 164.204H298.732Z" fill="#6C63FF"/>
<path id="Vector_71" d="M310.351 157.259C301.019 168.148 295.613 181.861 295.001 196.195C294.959 197.204 296.525 197.204 296.567 196.195C297.16 182.273 302.403 168.952 311.458 158.366C312.11 157.604 311.009 156.491 310.351 157.259Z" fill="#6C63FF"/>
<path id="Vector_72" d="M106.691 173.968L165.03 173.206L171.737 173.117C172.942 173.117 174.148 173.075 175.354 173.07C177.05 173.07 178.193 174.48 178.162 176.204C178.083 179.861 175.787 179.731 172.78 179.861L165.531 180.19L136.009 181.491C130.722 181.726 125.429 182.014 120.142 182.197C115.371 182.343 106.3 180.786 108.419 173.838C108.711 172.871 107.203 172.459 106.905 173.42C105.862 176.836 107.709 180.305 110.684 182.097C114.907 184.636 120.471 183.774 125.132 183.565L161.376 181.92L170.176 181.528C172.431 181.423 175.568 181.883 177.64 180.833C180.072 179.605 180.5 174.731 178.966 172.678C178.177 171.633 177.071 171.539 175.834 171.492C172.587 171.367 169.283 171.581 166.032 171.623L147.962 171.863L106.671 172.385C105.663 172.385 105.663 173.953 106.671 173.953L106.691 173.968Z" fill="#6C63FF"/>
<g id="Michel">
<path id="Vector_73" d="M342.393 365.96C341.077 366.786 339.574 367.251 338.217 367.977C336.86 368.703 335.54 369.795 335.153 371.3C335.009 371.767 335.033 372.27 335.221 372.721C335.559 373.266 336.076 373.676 336.683 373.88C339.439 375.106 342.417 375.756 345.433 375.79C348.45 375.824 351.441 375.242 354.225 374.079C355.205 373.608 356.217 373.206 357.253 372.877C358.529 372.617 359.828 372.484 361.131 372.48C362.5 372.4 363.862 372.226 365.207 371.958C365.883 371.883 366.524 371.616 367.055 371.19C367.539 370.632 367.83 369.932 367.885 369.194C368.502 365.124 367.571 360.97 365.275 357.555C364.986 357.076 364.598 356.664 364.137 356.348C363.575 356.057 362.958 355.891 362.326 355.862C359.716 355.543 356.981 354.958 354.345 354.895C352.456 354.854 351.506 355.752 350.17 357.053C347.409 359.817 345.796 363.834 342.393 365.96Z" fill="#323444"/>
<path id="Vector_74" d="M380.855 365.574C380.855 368.134 381.163 370.845 382.713 372.888C383.422 373.771 384.281 374.522 385.25 375.108C388.528 377.198 392.87 377.966 396.326 376.195C396.884 375.944 397.361 375.542 397.704 375.035C398.225 374.126 397.949 372.992 397.657 371.989L392.656 354.645C389.425 355.141 384.676 355.491 381.805 357.131C379.722 358.317 380.855 363.285 380.855 365.574Z" fill="#323444"/>
<path id="Vector_75" d="M339.459 258.774C339.157 259.73 338.061 260.174 337.46 260.978C336.756 261.924 336.829 263.235 337.085 264.385C337.401 266.079 338.196 267.648 339.376 268.904C339.975 269.526 340.714 269.995 341.531 270.273C342.348 270.552 343.22 270.63 344.073 270.502C345.754 270.184 347.205 268.695 347.263 266.986C347.232 266.209 347.066 265.444 346.772 264.724L343.212 254.422C343.198 254.349 343.168 254.28 343.125 254.22C343.081 254.16 343.026 254.109 342.962 254.072C342.827 254.042 342.687 254.067 342.57 254.14C341.73 254.537 340.044 254.955 339.553 255.827C339.063 256.7 339.814 257.828 339.459 258.774Z" fill="#FBB3B2"/>
<path id="Vector_76" d="M337.794 258.257C339.094 258.053 340.232 257.29 341.448 256.789C342.664 256.287 344.188 256.094 345.211 256.93C345.504 257.17 345.785 257.499 346.166 257.494C345.648 254.94 344.864 252.446 343.828 250.055C343.792 249.94 343.721 249.84 343.625 249.767C343.482 249.71 343.323 249.71 343.181 249.767L339.668 250.687C338.369 251.026 338.217 250.922 338.316 252.202C338.342 252.771 338.635 258.257 337.794 258.257Z" fill="#323444"/>
<path id="Vector_77" d="M337.408 183.863C336.886 184.667 336.886 185.671 336.886 186.616C336.886 191.24 336.933 195.889 337.617 200.466C337.779 201.563 337.982 202.66 338.087 203.767C338.205 205.309 338.229 206.857 338.16 208.401L337.638 228.515C337.575 230.975 337.45 233.619 335.931 235.552C335.47 236.2 335.254 236.99 335.32 237.783C335.717 242.829 336.552 247.834 337.382 252.823C338.718 252.22 340.178 251.942 341.642 252.012C343.107 252.082 344.533 252.498 345.806 253.226C348.44 244.938 349.896 236.32 350.133 227.627C350.253 223.348 350.071 219.043 350.728 214.817C351.83 207.701 351.381 200.403 350.572 193.246C350.316 190.978 349.773 188.643 348.322 186.888C346.948 185.352 345.119 184.297 343.103 183.879C341.171 183.372 339.444 183.894 337.408 183.863Z" fill="#5B5583"/>
<path id="Vector_78" opacity="0.1" d="M337.408 183.863C336.886 184.667 336.886 185.671 336.886 186.616C336.886 191.24 336.933 195.889 337.617 200.466C337.779 201.563 337.982 202.66 338.087 203.767C338.205 205.309 338.229 206.857 338.16 208.401L337.638 228.515C337.575 230.975 337.45 233.619 335.931 235.552C335.47 236.2 335.254 236.99 335.32 237.783C335.717 242.829 336.552 247.834 337.382 252.823C338.718 252.22 340.178 251.942 341.642 252.012C343.107 252.082 344.533 252.498 345.806 253.226C348.44 244.938 349.896 236.32 350.133 227.627C350.253 223.348 350.071 219.043 350.728 214.817C351.83 207.701 351.381 200.403 350.572 193.246C350.316 190.978 349.773 188.643 348.322 186.888C346.948 185.352 345.119 184.297 343.103 183.879C341.171 183.372 339.444 183.894 337.408 183.863Z" fill="black"/>
<path id="Vector_79" d="M343.786 242.192C340.286 260.148 342.197 278.739 349.277 295.605C349.889 296.854 350.318 298.184 350.551 299.555C350.838 302.115 349.658 304.575 348.985 307.051C347.419 312.683 348.322 318.681 349.324 324.443C349.742 326.846 350.171 329.248 350.613 331.647C351.046 333.988 351.464 336.532 350.378 338.653C351.313 342.55 351.866 346.411 352.8 350.308C352.899 350.617 352.93 350.943 352.889 351.265C352.701 351.775 352.369 352.219 351.934 352.544C351.237 353.251 350.737 354.127 350.482 355.086C350.226 356.045 350.225 357.054 350.478 358.014C352.863 356.301 356.188 356.902 358.912 358.014C361.637 359.127 364.32 360.626 367.263 360.626C366.835 357.168 366.423 353.537 367.697 350.293C368.438 348.412 369.743 346.636 369.706 344.624C369.67 342.822 368.568 341.213 368.302 339.432C368.203 338.323 368.245 337.207 368.427 336.109C369.127 329.714 368.333 323.257 367.54 316.873C367.45 315.614 367.154 314.379 366.663 313.216C366.293 312.464 365.739 311.743 365.75 310.902C365.75 309.925 366.538 309.131 366.83 308.201C367.352 306.487 366.392 304.157 367.837 303.097C371.648 300.297 370.186 293.609 370.103 288.881C370.037 284.803 369.863 280.728 369.581 276.657C371.98 283.408 372.961 290.583 372.462 297.731C372.295 300.072 371.987 302.532 372.9 304.695C373.6 306.357 374.988 307.725 375.364 309.486C375.599 310.573 375.432 311.696 375.484 312.803C375.536 313.911 375.912 315.118 376.867 315.677C376.94 320.713 377.389 326.099 377.467 331.135C377.417 333.71 377.627 336.283 378.094 338.815C378.328 339.621 378.458 340.453 378.48 341.291C378.362 342.343 378.084 343.37 377.655 344.337C376.746 347.033 376.508 349.911 376.963 352.72C377.418 355.529 378.551 358.184 380.265 360.454C381.497 358.265 384.065 357.105 386.57 356.922C389.076 356.74 391.55 357.372 393.977 358.009C393.606 354.957 394.212 351.865 395.71 349.18C396.111 348.575 396.419 347.913 396.623 347.216C396.905 345.889 396.247 344.567 395.892 343.256C395.313 341.166 395.516 338.914 395.652 336.731C396.108 329.417 395.784 322.076 394.686 314.83C394.517 313.403 394.183 312.001 393.69 310.651C393.502 310.17 393.272 309.711 393.115 309.225C392.869 308.353 392.729 307.455 392.698 306.55L392.098 298.191C391.675 292.335 393.596 286.551 394.937 280.836C395.537 278.276 396.19 275.722 396.592 273.12C397.14 269.578 397.228 265.957 398.032 262.462C398.752 259.328 400.052 256.272 400.324 253.059C400.741 248.08 398.674 243.268 396.67 238.702C395.835 236.822 392.677 237.01 390.647 236.675C376.246 234.309 361.078 234.293 347.497 239.627C346.093 240.209 344.828 241.084 343.786 242.192Z" fill="#3C354C"/>
<path id="Vector_80" d="M354.168 149.466L355.765 155.683C356.199 157.109 356.44 158.587 356.48 160.077C356.497 160.62 356.376 161.159 356.13 161.644C355.867 162.042 355.531 162.386 355.139 162.658C354.048 163.488 353.291 165.426 352.043 166.001C352.685 167.119 353.573 166.393 354.732 166.952C356.772 167.945 358.641 169.371 360.854 169.862C362.942 170.322 365.134 169.888 367.206 169.339C370.145 168.54 373.068 167.438 375.432 165.51C377.796 163.582 379.143 161.879 379.133 158.833C376.523 159.142 374.2 156.503 373.047 154.132C372.647 153.23 372.352 152.285 372.17 151.316L370.771 145.156C369.247 145.491 368.005 146.582 366.548 147.152C365.092 147.721 363.37 147.774 361.752 147.847C358.88 147.978 356.023 148.348 353.213 148.954C352.826 149.033 352.341 149.278 352.435 149.654" fill="#FBB3B2"/>
<path id="Vector_81" opacity="0.1" d="M354.168 149.466L355.765 155.683C356.199 157.109 356.44 158.587 356.48 160.077C356.497 160.62 356.376 161.159 356.13 161.644C355.867 162.042 355.531 162.386 355.139 162.658C354.048 163.488 353.291 165.426 352.043 166.001C352.685 167.119 353.573 166.393 354.732 166.952C356.772 167.945 358.641 169.371 360.854 169.862C362.942 170.322 365.134 169.888 367.206 169.339C370.145 168.54 373.068 167.438 375.432 165.51C377.796 163.582 379.143 161.879 379.133 158.833C376.523 159.142 374.2 156.503 373.047 154.132C372.647 153.23 372.352 152.285 372.17 151.316L370.771 145.156C369.247 145.491 368.005 146.582 366.548 147.152C365.092 147.721 363.37 147.774 361.752 147.847C358.88 147.978 356.023 148.348 353.213 148.954C352.826 149.033 352.341 149.278 352.435 149.654" fill="black"/>
<path id="Vector_82" d="M361.026 152.893C368.659 152.893 374.847 146.7 374.847 139.059C374.847 131.419 368.659 125.226 361.026 125.226C353.393 125.226 347.205 131.419 347.205 139.059C347.205 146.7 353.393 152.893 361.026 152.893Z" fill="#FBB3B2"/>
<path id="Vector_83" d="M364.831 161.864C365.57 160.266 366.637 158.842 367.963 157.684C369.91 155.976 372.572 154.591 373.031 152.042L377.248 156.958C377.478 157.186 377.656 157.46 377.77 157.763C377.823 158.046 377.816 158.338 377.747 158.618C377.679 158.898 377.551 159.16 377.374 159.387C376.33 161.054 374.686 162.245 373.13 163.452C369.565 166.278 366.152 169.292 362.905 172.479C362.762 172.646 362.57 172.763 362.357 172.814C362.155 172.819 361.957 172.763 361.788 172.652C358.987 171.18 356.508 169.162 354.497 166.717C354.345 166.534 354.157 166.325 353.912 166.341C353.764 166.368 353.628 166.439 353.521 166.545C352.117 167.694 350.582 169.068 348.781 168.89C351.114 167.213 352.435 164.413 352.926 161.576C353.023 160.605 353.222 159.647 353.521 158.719C353.675 158.254 353.942 157.834 354.297 157.497C354.652 157.16 355.084 156.916 355.556 156.786C354.418 158.525 355.196 160.991 356.725 162.397C358.211 163.659 359.993 164.523 361.903 164.909C363.678 165.244 364.2 163.232 364.831 161.864Z" fill="#323444"/>
<path id="Vector_84" d="M346.85 243.613C348.818 244.099 350.681 244.924 352.591 245.536C356.073 246.627 359.737 247.012 363.37 246.669C364.488 246.645 365.575 246.298 366.501 245.671C366.747 245.473 366.971 245.238 367.232 245.055C367.669 244.793 368.142 244.597 368.636 244.475C373.422 242.976 377.431 239.742 381.32 236.576C381.445 236.471 381.586 236.341 381.575 236.174C381.557 236.06 381.502 235.955 381.419 235.876L379.373 233.525C374.007 234.439 368.511 234.094 363.067 233.959C361.949 233.909 360.83 233.939 359.716 234.047C358.641 234.173 357.581 234.444 356.522 234.674C352.498 235.552 348.385 235.886 344.308 236.461C344.023 236.482 343.746 236.568 343.499 236.712C343.327 236.845 343.181 237.008 343.066 237.192L341.636 239.204C341.081 239.88 340.672 240.665 340.435 241.508C340.101 243.075 340.801 243.597 342.132 243.394C343.704 243.163 345.306 243.238 346.85 243.613Z" fill="#323444"/>
<path id="Vector_85" d="M362.848 170.087C361.251 168.449 359.441 167.035 357.466 165.881C356.669 165.374 355.784 165.02 354.857 164.836C354.39 164.744 353.909 164.755 353.448 164.869C352.986 164.983 352.555 165.196 352.184 165.495C351.72 165.907 351.428 166.482 350.979 166.916C350.414 167.391 349.766 167.757 349.068 167.997C346.692 169.013 344.44 170.298 342.356 171.826C341.22 172.622 340.196 173.567 339.313 174.637C336.949 177.667 336.594 181.789 336.656 185.634C336.703 188.309 339.266 190.294 341.03 192.295C342.685 194.264 344.182 196.36 345.509 198.564C346.459 200.069 347.45 201.699 347.33 203.491C347.231 204.959 346.375 206.338 346.511 207.801C346.558 208.323 346.725 208.804 346.772 209.311C346.866 210.355 346.453 211.4 346.349 212.445C346.208 213.924 346.688 215.392 346.714 216.881C346.695 217.9 346.566 218.914 346.328 219.905C345.326 224.68 344.068 229.482 344.324 234.356L341.432 234.878C341.706 235.147 341.913 235.476 342.036 235.84C342.159 236.204 342.195 236.591 342.14 236.971C342.086 237.351 341.943 237.713 341.723 238.027C341.503 238.342 341.212 238.6 340.874 238.781C345.389 240.291 350.269 239.528 355.055 239.523C359.017 239.523 362.963 240.045 366.919 239.972C370.875 239.899 374.957 239.183 378.219 236.942C379.106 236.336 379.921 235.625 380.855 235.098C382.106 234.449 383.455 234.007 384.848 233.792C387.428 233.299 390.051 233.065 392.677 233.092C393.961 233.092 395.36 233.144 396.383 232.371C397.51 231.514 397.797 229.962 397.949 228.557C398.1 227.073 398.194 225.584 398.22 224.095C398.264 222.936 398.203 221.775 398.037 220.626C397.881 219.787 397.677 218.956 397.427 218.14L395.459 211.202C394.645 208.339 395.777 205.199 396.018 202.232C396.075 201.532 396.085 200.717 395.548 200.267C395.355 200.105 395.089 199.996 395.026 199.745C394.998 199.626 394.994 199.502 395.016 199.382C395.037 199.262 395.083 199.147 395.151 199.045C396.195 196.955 397.761 195.111 399.191 193.225C401.593 189.917 403.823 186.487 405.872 182.949C405.23 175.545 402.116 168.574 397.03 163.159C395.986 162.026 394.791 160.939 393.33 160.427C392.374 160.135 391.384 159.975 390.386 159.952C386.294 159.675 382.035 159.429 378.47 157.371C378.214 157.193 377.924 157.071 377.619 157.01C376.831 156.922 376.257 157.7 375.745 158.316C374.43 159.884 372.493 160.782 370.792 161.937C367.618 164.095 365.139 167.062 362.848 170.087Z" fill="#5E5C6B"/>
<path id="Vector_86" d="M365.88 133.276C363.563 133.553 361.877 135.366 362.112 137.336C362.347 139.305 364.414 140.664 366.731 140.381C369.049 140.099 370.734 138.292 370.5 136.327C370.265 134.363 368.198 133 365.88 133.276ZM366.669 139.838C364.706 140.073 362.957 138.919 362.754 137.257C362.55 135.596 363.986 134.06 365.943 133.825C367.9 133.59 369.654 134.744 369.858 136.406C370.061 138.067 368.626 139.603 366.669 139.838Z" fill="#3C354C"/>
<path id="Vector_87" d="M354.585 134.635C352.268 134.911 350.582 136.724 350.817 138.689C351.052 140.653 353.119 142.016 355.436 141.74C357.754 141.463 359.44 139.65 359.205 137.68C358.97 135.711 356.903 134.358 354.585 134.635ZM355.374 141.191C353.411 141.426 351.663 140.272 351.464 138.615C351.266 136.959 352.691 135.418 354.653 135.178C356.616 134.938 358.364 136.097 358.563 137.759C358.761 139.42 357.331 140.956 355.374 141.191Z" fill="#3C354C"/>
<path id="Vector_88" d="M346.198 135.643L351.234 136.719L350.739 138.046L345.989 136.651L346.198 135.643Z" fill="#3C354C"/>
<path id="Vector_89" d="M374.273 132.268L369.628 134.509L370.427 135.68L374.712 133.198L374.273 132.268Z" fill="#3C354C"/>
<path id="Vector_90" d="M358.74 136.385L362.274 135.961L362.091 136.839L359.059 137.043L358.74 136.385Z" fill="#3C354C"/>
<path id="Vector_91" d="M351.887 135.199C352.219 134.483 352.397 133.705 352.409 132.916C352.421 132.443 352.502 131.975 352.649 131.526C352.906 130.956 353.296 130.456 353.787 130.069C355.415 128.689 357.748 127.979 360.05 127.88C362.56 127.764 365.057 128.304 367.295 129.447C367.979 129.768 368.591 130.222 369.096 130.784C369.826 131.678 369.983 132.832 370.719 133.715C371.221 134.251 371.853 134.648 372.553 134.867C373.254 135.087 373.999 135.122 374.717 134.969C374.973 134.06 374.639 133.099 374.769 132.169C374.975 131.372 375.253 130.596 375.599 129.849C376.408 127.462 375.228 124.693 372.796 123.267C371.945 122.744 370.938 122.405 370.301 121.699C369.665 120.994 369.513 120.263 369.075 119.557C367.911 117.692 364.899 116.82 362.608 117.682C361.887 117.954 361.251 118.366 360.52 118.659C359.163 119.218 357.618 119.317 356.125 119.505C354.654 119.641 353.215 120.019 351.866 120.623C350.577 121.26 349.496 122.284 349.199 123.507C349.058 124.071 349.089 124.656 348.948 125.215C348.228 128.052 343.578 129.431 343.317 132.325C343.223 133.37 343.792 134.373 344.501 135.225C344.992 135.805 346.166 137.356 346.996 137.581C347.826 137.806 348.458 137.017 349.251 136.745C350.504 136.353 351.261 136.27 351.887 135.199Z" fill="#646464"/>
</g>
<path id="Vector_92" opacity="0.1" d="M445.958 375.766C451.008 375.766 455.102 375.074 455.102 374.22C455.102 373.366 451.008 372.673 445.958 372.673C440.907 372.673 436.813 373.366 436.813 374.22C436.813 375.074 440.907 375.766 445.958 375.766Z" fill="#6C63FF"/>
<path id="Vector_93" opacity="0.1" d="M39.7308 379.543C43.7492 379.543 47.0067 378.991 47.0067 378.311C47.0067 377.63 43.7492 377.078 39.7308 377.078C35.7124 377.078 32.4548 377.63 32.4548 378.311C32.4548 378.991 35.7124 379.543 39.7308 379.543Z" fill="#6C63FF"/>
<path id="Vector_94" d="M34.8452 372.59C34.8452 372.59 38.9947 372.459 40.2422 371.545C41.4896 370.631 46.6308 369.586 46.9388 371.023C47.2467 372.459 53.176 378.133 48.5046 378.169C43.8332 378.206 37.6168 377.438 36.3693 376.681C35.1218 375.923 34.8452 372.59 34.8452 372.59Z" fill="#A8A8A8"/>
</g>
<g id="Leaves2">
<path id="Vector_95" d="M11.7385 334.542C11.7385 355.439 24.8238 372.323 40.9989 372.323L11.7385 334.542Z" fill="#46455B"/>
<path id="Vector_96" d="M40.999 372.324C40.999 351.207 55.6136 334.119 73.6573 334.119L40.999 372.324Z" fill="#6C63FF"/>
<path id="Vector_97" d="M22.3394 336.443C22.3394 356.296 30.6905 372.334 40.999 372.334L22.3394 336.443Z" fill="#6C63FF"/>
<path id="Vector_98" d="M40.999 372.324C40.999 345.34 57.8841 323.503 78.7463 323.503L40.999 372.324Z" fill="#46455B"/>
<path id="Vector_99" opacity="0.2" d="M48.5725 377.715C43.8749 377.751 37.6846 376.983 36.4372 376.221C35.4872 375.646 35.1114 373.562 34.9809 372.605H34.8452C34.8452 372.605 35.1062 375.954 36.3536 376.717C37.6011 377.48 43.8071 378.242 48.4889 378.206C49.8408 378.206 50.3105 377.715 50.2844 376.999C50.0965 377.417 49.5798 377.683 48.5725 377.715Z" fill="black"/>
</g>
<g id="Leaves3">
<path id="Vector_100" d="M406 318.87C406 345.117 422.452 366.359 442.782 366.359L406 318.87Z" fill="#46455B"/>
<path id="Vector_101" d="M442.782 366.364C442.782 339.82 461.144 318.343 483.833 318.343L442.782 366.364Z" fill="#6C63FF"/>
<path id="Vector_102" d="M419.331 321.252C419.331 346.188 429.822 366.364 442.782 366.364L419.331 321.252Z" fill="#6C63FF"/>
<path id="Vector_103" d="M442.782 366.364C442.782 332.448 464.004 305 490.227 305L442.782 366.364Z" fill="#46455B"/>
<path id="Vector_104" d="M435.046 366.698C435.046 366.698 440.266 366.536 441.832 365.418C443.398 364.3 449.854 362.958 450.245 364.755C450.637 366.552 458.075 373.694 452.192 373.741C446.31 373.788 438.507 372.821 436.941 371.865C435.375 370.909 435.046 366.698 435.046 366.698Z" fill="#A8A8A8"/>
<path id="Vector_105" opacity="0.2" d="M452.302 373.114C446.414 373.161 438.622 372.195 437.051 371.238C435.855 370.512 435.38 367.895 435.219 366.693H435.046C435.046 366.693 435.375 370.904 436.946 371.86C438.517 372.816 446.31 373.783 452.198 373.736C453.899 373.736 454.484 373.114 454.452 372.221C454.218 372.764 453.596 373.104 452.302 373.114Z" fill="black"/>
</g>
<g id="Arms">
<path id="Vector_106" d="M406.227 185.086C407.041 187.666 406.963 190.425 407.229 193.115C407.387 194.739 407.671 196.348 408.08 197.927C408.266 198.795 408.602 199.624 409.071 200.377C409.541 201.067 410.215 201.626 410.512 202.404C410.675 202.931 410.747 203.482 410.726 204.034L410.789 207.639C410.923 209.549 410.632 211.465 409.938 213.25L407.688 220.099C406.472 223.808 405.225 227.575 403.033 230.803C402.724 231.35 402.256 231.789 401.691 232.062C401.249 232.179 400.796 232.249 400.339 232.271C399.544 232.413 398.822 232.828 398.299 233.445C397.776 234.062 397.484 234.842 397.474 235.651C396.951 234.887 396.3 234.221 395.548 233.682L390.97 230.025C389.404 228.75 387.771 227.454 385.871 226.718C388.426 225.919 390.695 224.395 392.401 222.331C394.108 220.266 395.179 217.75 395.485 215.089C395.483 214.296 395.662 213.514 396.007 212.8C396.388 212.184 397.093 211.714 397.145 210.988C397.208 210.073 396.174 209.384 396.174 208.469C396.174 207.863 396.623 207.362 396.821 206.792C397.007 206.089 397.007 205.349 396.821 204.645L396.19 201.135C396.153 200.783 396.046 200.442 395.877 200.131C395.64 199.834 395.378 199.558 395.094 199.306C394.008 198.089 394.488 196.171 395.094 194.672C396.484 191.344 398.275 188.198 400.428 185.305C401.194 184.333 401.904 183.318 402.552 182.264C403.106 181.303 403.231 179.971 403.815 179.13C404.567 181.105 405.585 183.053 406.227 185.086Z" fill="#5B5583"/>
<path id="Vector_107" d="M385.709 226.932C385.476 227.105 385.275 227.317 385.114 227.559C384.499 228.331 383.68 228.916 382.75 229.246C383.272 229.622 383.747 229.993 384.237 230.375C387.867 233.181 391.191 236.363 394.154 239.867C394.483 238.692 396.451 238.775 396.931 237.652C397.044 237.331 397.08 236.987 397.035 236.649C396.936 234.889 396.684 233.141 396.284 231.425C396.126 230.541 395.769 229.705 395.24 228.98C394.509 228.097 393.371 227.674 392.286 227.308C390.642 226.733 387.379 225.924 385.709 226.932Z" fill="#323444"/>
<path id="Vector_108" d="M379.185 231.038C377.619 232.198 376.246 233.65 374.487 234.444C373.245 235.009 371.831 235.254 370.745 236.095C371.335 237.396 372.869 238.07 374.294 238.018C375.72 237.878 377.087 237.376 378.266 236.56C379.2 235.986 380.297 235.317 381.314 235.719C381.471 236.513 380.792 237.26 380.792 238.065C380.792 238.869 381.46 239.454 382.118 239.878C385.25 241.899 389.279 241.732 393.011 241.497C393.225 241.505 393.436 241.443 393.611 241.319C393.692 241.225 393.754 241.115 393.792 240.997C393.831 240.879 393.846 240.754 393.836 240.63C393.883 239.804 393.904 238.984 393.909 238.159C394.014 237.493 393.928 236.811 393.66 236.193C393.392 235.575 392.953 235.046 392.395 234.669C390.37 232.927 388.186 231.379 385.871 230.046C383.574 228.713 381.246 229.502 379.185 231.038Z" fill="#FBB3B2"/>
</g>
</g>
</svg>
