<svg width="30" height="32" viewBox="0 0 30 32" fill="none" xmlns="http://www.w3.org/2000/svg">
<path d="M24.375 21.9375C23.2617 21.9375 22.2344 22.3281 21.4297 22.9805L13.3359 17.125C13.4715 16.3811 13.4715 15.6189 13.3359 14.875L21.4297 9.01953C22.2344 9.67188 23.2617 10.0625 24.375 10.0625C26.9609 10.0625 29.0625 7.96094 29.0625 5.375C29.0625 2.78906 26.9609 0.6875 24.375 0.6875C21.7891 0.6875 19.6875 2.78906 19.6875 5.375C19.6875 5.82812 19.75 6.26172 19.8711 6.67578L12.1836 12.2422C11.043 10.7305 9.23047 9.75 7.1875 9.75C3.73438 9.75 0.9375 12.5469 0.9375 16C0.9375 19.4531 3.73438 22.25 7.1875 22.25C9.23047 22.25 11.043 21.2695 12.1836 19.7578L19.8711 25.3242C19.75 25.7383 19.6875 26.1758 19.6875 26.625C19.6875 29.2109 21.7891 31.3125 24.375 31.3125C26.9609 31.3125 29.0625 29.2109 29.0625 26.625C29.0625 24.0391 26.9609 21.9375 24.375 21.9375ZM24.375 3.34375C25.4961 3.34375 26.4062 4.25391 26.4062 5.375C26.4062 6.49609 25.4961 7.40625 24.375 7.40625C23.2539 7.40625 22.3438 6.49609 22.3438 5.375C22.3438 4.25391 23.2539 3.34375 24.375 3.34375ZM7.1875 19.4375C5.29297 19.4375 3.75 17.8945 3.75 16C3.75 14.1055 5.29297 12.5625 7.1875 12.5625C9.08203 12.5625 10.625 14.1055 10.625 16C10.625 17.8945 9.08203 19.4375 7.1875 19.4375ZM24.375 28.6562C23.2539 28.6562 22.3438 27.7461 22.3438 26.625C22.3438 25.5039 23.2539 24.5938 24.375 24.5938C25.4961 24.5938 26.4062 25.5039 26.4062 26.625C26.4062 27.7461 25.4961 28.6562 24.375 28.6562Z" fill="black"/>
</svg>
